G04*
G04 #@! TF.GenerationSoftware,Altium Limited,Altium Designer,19.0.15 (446)*
G04*
G04 Layer_Color=65535*
%FSLAX44Y44*%
%MOMM*%
G71*
G01*
G75*
%ADD10C,0.2500*%
%ADD11C,0.2000*%
%ADD12C,0.2540*%
%ADD13C,0.1000*%
%ADD14C,0.0500*%
D10*
X349850Y286500D02*
G03*
X349850Y286500I-1250J0D01*
G01*
X350550Y434612D02*
G03*
X350550Y434612I-1250J0D01*
G01*
X344750Y97700D02*
G03*
X344750Y97700I-1250J0D01*
G01*
X398730Y438604D02*
G03*
X398730Y438604I-1250J0D01*
G01*
Y332686D02*
G03*
X398730Y332686I-1250J0D01*
G01*
X398476Y227022D02*
G03*
X398476Y227022I-1250J0D01*
G01*
D11*
X300500Y288000D02*
G03*
X340100Y288000I19800J-15000D01*
G01*
X301200Y436112D02*
G03*
X340800Y436112I19800J-15000D01*
G01*
X345000Y145800D02*
G03*
X345000Y106200I-15000J-19800D01*
G01*
X293397Y320313D02*
Y421912D01*
X212399Y320313D02*
Y421913D01*
X293398D01*
X212399Y320313D02*
X293397D01*
X359460Y211490D02*
Y213776D01*
Y158404D02*
Y160690D01*
Y211490D02*
X367080D01*
Y160690D02*
Y211490D01*
X351840Y160690D02*
X367080D01*
X351840D02*
Y211490D01*
X359460D01*
X427231Y220584D02*
Y322183D01*
X508230Y220583D02*
Y322183D01*
X427230Y220583D02*
X508230D01*
X427231Y322183D02*
X508230D01*
X427086Y110348D02*
Y211947D01*
X508085Y110347D02*
Y211947D01*
X427085Y110347D02*
X508085D01*
X427086Y211947D02*
X508085D01*
X427231Y330712D02*
Y432311D01*
X508230Y330711D02*
Y432311D01*
X427230Y330711D02*
X508230D01*
X427231Y432311D02*
X508230D01*
X300500Y288000D02*
X340100D01*
X307000Y174600D02*
X314620D01*
Y225400D01*
X299380D02*
X314620D01*
X299380Y174600D02*
Y225400D01*
Y174600D02*
X307000D01*
Y225400D02*
Y227686D01*
Y172314D02*
Y174600D01*
X212500Y314112D02*
X272500D01*
X212500Y214112D02*
Y314112D01*
Y214112D02*
X272500D01*
Y314112D01*
X327000Y225400D02*
Y227686D01*
Y172314D02*
Y174600D01*
Y225400D02*
X334620D01*
Y174600D02*
Y225400D01*
X319380Y174600D02*
X334620D01*
X319380D02*
Y225400D01*
X327000D01*
X308300Y322214D02*
Y324500D01*
Y375300D02*
Y377586D01*
X300680Y324500D02*
X308300D01*
X300680D02*
Y375300D01*
X315920D01*
Y324500D02*
Y375300D01*
X308300Y324500D02*
X315920D01*
X301200Y436112D02*
X340800D01*
X230314Y138000D02*
X232600D01*
X283400D02*
X285686D01*
X232600D02*
Y145620D01*
X283400D01*
Y130380D02*
Y145620D01*
X232600Y130380D02*
X283400D01*
X232600D02*
Y138000D01*
X345000Y106200D02*
Y145800D01*
X329000Y375300D02*
Y377586D01*
Y322214D02*
Y324500D01*
Y375300D02*
X336620D01*
Y324500D02*
Y375300D01*
X321380Y324500D02*
X336620D01*
X321380D02*
Y375300D01*
X329000D01*
X283400Y117000D02*
X285686D01*
X230314D02*
X232600D01*
X283400Y109380D02*
Y117000D01*
X232600Y109380D02*
X283400D01*
X232600D02*
Y124620D01*
X283400D01*
Y117000D02*
Y124620D01*
X359206Y306740D02*
Y309026D01*
Y253654D02*
Y255940D01*
Y306740D02*
X366826D01*
Y255940D02*
Y306740D01*
X351586Y255940D02*
X366826D01*
X351586D02*
Y306740D01*
X359206D01*
Y401736D02*
Y404022D01*
Y348650D02*
Y350936D01*
Y401736D02*
X366826D01*
Y350936D02*
Y401736D01*
X351586Y350936D02*
X366826D01*
X351586D02*
Y401736D01*
X359206D01*
X419430Y329104D02*
Y432104D01*
X424430Y329104D02*
Y432104D01*
X375430Y329104D02*
Y432104D01*
Y329104D02*
X424430D01*
X375430Y432104D02*
X424430D01*
X419430Y223186D02*
Y326186D01*
X424430Y223186D02*
Y326186D01*
X375430Y223186D02*
Y326186D01*
Y223186D02*
X424430D01*
X375430Y326186D02*
X424430D01*
X419176Y117522D02*
Y220522D01*
X424176Y117522D02*
Y220522D01*
X375176Y117522D02*
Y220522D01*
Y117522D02*
X424176D01*
X375176Y220522D02*
X424176D01*
D12*
X238000Y324765D02*
X232922D01*
X235461D01*
Y340000D01*
X238000D01*
X232922D01*
X225304D02*
Y324765D01*
X215147Y340000D01*
Y324765D01*
X432278Y240137D02*
Y224902D01*
X442435D01*
X447513Y237598D02*
X450052Y240137D01*
X455131D01*
X457670Y237598D01*
Y235059D01*
X455131Y232520D01*
X452591D01*
X455131D01*
X457670Y229980D01*
Y227441D01*
X455131Y224902D01*
X450052D01*
X447513Y227441D01*
X431516Y349865D02*
Y334630D01*
X441673D01*
X456908D02*
X446751D01*
X456908Y344787D01*
Y347326D01*
X454369Y349865D01*
X449290D01*
X446751Y347326D01*
X318771Y254693D02*
Y261464D01*
X317078Y263157D01*
X313693D01*
X312000Y261464D01*
Y254693D01*
X313693Y253000D01*
X317078D01*
X315386Y256386D02*
X318771Y253000D01*
X317078D02*
X318771Y254693D01*
X328928Y263157D02*
X322157D01*
Y258078D01*
X325542Y259771D01*
X327235D01*
X328928Y258078D01*
Y254693D01*
X327235Y253000D01*
X323849D01*
X322157Y254693D01*
X312334Y191872D02*
X302177D01*
Y196950D01*
X303870Y198643D01*
X307256D01*
X308948Y196950D01*
Y191872D01*
Y195258D02*
X312334Y198643D01*
X302177Y208800D02*
X303870Y205414D01*
X307256Y202029D01*
X310641D01*
X312334Y203722D01*
Y207107D01*
X310641Y208800D01*
X308948D01*
X307256Y207107D01*
Y202029D01*
X270909Y190330D02*
X265831D01*
X268370D01*
Y205565D01*
X270909D01*
X265831D01*
X258213D02*
Y190330D01*
X248056Y205565D01*
Y190330D01*
X242978Y205565D02*
Y190330D01*
X235361D01*
X232821Y192869D01*
Y197948D01*
X235361Y200487D01*
X242978D01*
X227743Y190330D02*
Y203026D01*
X225204Y205565D01*
X220125D01*
X217586Y203026D01*
Y190330D01*
X212508D02*
X202351D01*
X207430D01*
Y205565D01*
X332323Y191508D02*
X322167D01*
Y196586D01*
X323859Y198279D01*
X327245D01*
X328938Y196586D01*
Y191508D01*
Y194893D02*
X332323Y198279D01*
X322167Y201665D02*
Y208436D01*
X323859D01*
X330630Y201665D01*
X332323D01*
X249508Y111385D02*
Y121541D01*
X254586D01*
X256279Y119849D01*
Y116463D01*
X254586Y114770D01*
X249508D01*
X252894D02*
X256279Y111385D01*
X259665Y113077D02*
X261357Y111385D01*
X264743D01*
X266436Y113077D01*
Y119849D01*
X264743Y121541D01*
X261357D01*
X259665Y119849D01*
Y118156D01*
X261357Y116463D01*
X266436D01*
X333826Y340502D02*
X323669D01*
Y345580D01*
X325362Y347273D01*
X328748D01*
X330440Y345580D01*
Y340502D01*
Y343888D02*
X333826Y347273D01*
X323669Y357430D02*
Y350659D01*
X328748D01*
X327055Y354044D01*
Y355737D01*
X328748Y357430D01*
X332133D01*
X333826Y355737D01*
Y352351D01*
X332133Y350659D01*
X248746Y133160D02*
Y143317D01*
X253824D01*
X255517Y141624D01*
Y138238D01*
X253824Y136546D01*
X248746D01*
X252132D02*
X255517Y133160D01*
X258903Y141624D02*
X260595Y143317D01*
X263981D01*
X265674Y141624D01*
Y139931D01*
X263981Y138238D01*
X265674Y136546D01*
Y134853D01*
X263981Y133160D01*
X260595D01*
X258903Y134853D01*
Y136546D01*
X260595Y138238D01*
X258903Y139931D01*
Y141624D01*
X260595Y138238D02*
X263981D01*
X314396Y341010D02*
X304239D01*
Y346088D01*
X305932Y347781D01*
X309318D01*
X311010Y346088D01*
Y341010D01*
Y344396D02*
X314396Y347781D01*
Y356245D02*
X304239D01*
X309318Y351167D01*
Y357938D01*
X308528Y128210D02*
X315299D01*
X316992Y129903D01*
Y133288D01*
X315299Y134981D01*
X308528D01*
X306835Y133288D01*
Y129903D01*
X310220Y131595D02*
X306835Y128210D01*
Y129903D02*
X308528Y128210D01*
X316992Y118053D02*
X315299Y121439D01*
X311913Y124824D01*
X308528D01*
X306835Y123132D01*
Y119746D01*
X308528Y118053D01*
X310220D01*
X311913Y119746D01*
Y124824D01*
X318771Y402693D02*
Y409464D01*
X317078Y411157D01*
X313693D01*
X312000Y409464D01*
Y402693D01*
X313693Y401000D01*
X317078D01*
X315386Y404386D02*
X318771Y401000D01*
X317078D02*
X318771Y402693D01*
X327235Y401000D02*
Y411157D01*
X322157Y406078D01*
X328928D01*
X365810Y173390D02*
X353114D01*
Y179738D01*
X355230Y181854D01*
X359462D01*
X361578Y179738D01*
Y173390D01*
Y177622D02*
X365810Y181854D01*
X355230Y186086D02*
X353114Y188202D01*
Y192434D01*
X355230Y194550D01*
X357346D01*
X359462Y192434D01*
Y190318D01*
Y192434D01*
X361578Y194550D01*
X363694D01*
X365810Y192434D01*
Y188202D01*
X363694Y186086D01*
X365048Y270164D02*
X352352D01*
Y276512D01*
X354468Y278628D01*
X358700D01*
X360816Y276512D01*
Y270164D01*
Y274396D02*
X365048Y278628D01*
Y291324D02*
Y282860D01*
X356584Y291324D01*
X354468D01*
X352352Y289208D01*
Y284976D01*
X354468Y282860D01*
X353872Y384210D02*
X366568D01*
Y377862D01*
X364452Y375746D01*
X360220D01*
X358104Y377862D01*
Y384210D01*
Y379978D02*
X353872Y375746D01*
Y371514D02*
Y367282D01*
Y369398D01*
X366568D01*
X364452Y371514D01*
X383592Y239245D02*
Y247708D01*
X381476Y249825D01*
X377244D01*
X375128Y247708D01*
Y239245D01*
X377244Y237129D01*
X381476D01*
X379360Y241361D02*
X383592Y237129D01*
X381476D02*
X383592Y239245D01*
X387824Y247708D02*
X389940Y249825D01*
X394172D01*
X396288Y247708D01*
Y245593D01*
X394172Y243477D01*
X392056D01*
X394172D01*
X396288Y241361D01*
Y239245D01*
X394172Y237129D01*
X389940D01*
X387824Y239245D01*
X383846Y450842D02*
Y459306D01*
X381730Y461422D01*
X377498D01*
X375382Y459306D01*
Y450842D01*
X377498Y448726D01*
X381730D01*
X379614Y452958D02*
X383846Y448726D01*
X381730D02*
X383846Y450842D01*
X388078Y448726D02*
X392310D01*
X390194D01*
Y461422D01*
X388078Y459306D01*
X383846Y344947D02*
Y353411D01*
X381730Y355527D01*
X377498D01*
X375382Y353411D01*
Y344947D01*
X377498Y342831D01*
X381730D01*
X379614Y347063D02*
X383846Y342831D01*
X381730D02*
X383846Y344947D01*
X396542Y342831D02*
X388078D01*
X396542Y351295D01*
Y353411D01*
X394426Y355527D01*
X390194D01*
X388078Y353411D01*
X511359Y437260D02*
Y427103D01*
X518130D01*
X521516D02*
X524901D01*
X523208D01*
Y437260D01*
X521516Y435567D01*
X197000Y63000D02*
Y490000D01*
X195000Y61000D02*
X197000Y63000D01*
X195000Y61000D02*
X518000D01*
Y488000D01*
X520000Y490000D01*
X194000D02*
X520000D01*
D13*
X300500Y288000D02*
G03*
X340100Y288000I19800J-15000D01*
G01*
X301200Y436112D02*
G03*
X340800Y436112I19800J-15000D01*
G01*
X345000Y145800D02*
G03*
X345000Y106200I-15000J-19800D01*
G01*
X218130Y424982D02*
X219629Y423200D01*
Y421913D02*
Y423200D01*
X218130Y424984D02*
Y427612D01*
X293398Y320313D02*
Y421913D01*
X212399Y320313D02*
Y421913D01*
X293398D01*
X212399Y320313D02*
X293398D01*
X218130Y427612D02*
X225267D01*
X225268Y427611D01*
Y424984D02*
Y427613D01*
X223768Y421913D02*
Y423200D01*
X225270Y424982D01*
X501000Y219297D02*
X502499Y217514D01*
X501000Y219297D02*
Y220583D01*
X502499Y214884D02*
Y217512D01*
X427230Y220583D02*
Y322183D01*
X508230Y220583D02*
Y322183D01*
X427230Y220583D02*
X508230D01*
X427230Y322183D02*
X508230D01*
X495362Y214884D02*
X502499D01*
X495361Y214885D02*
X495362Y214884D01*
X495361Y214883D02*
Y217513D01*
X496861Y219297D02*
Y220583D01*
X495359Y217514D02*
X496861Y219297D01*
X500855Y109061D02*
X502354Y107278D01*
X500855Y109061D02*
Y110347D01*
X502354Y104648D02*
Y107276D01*
X427085Y110347D02*
Y211947D01*
X508085Y110347D02*
Y211947D01*
X427085Y110347D02*
X508085D01*
X427085Y211947D02*
X508085D01*
X495217Y104648D02*
X502354D01*
X495216Y104649D02*
X495217Y104648D01*
X495216Y104647D02*
Y107277D01*
X496716Y109061D02*
Y110347D01*
X495214Y107278D02*
X496716Y109061D01*
X501000Y329425D02*
X502499Y327642D01*
X501000Y329425D02*
Y330711D01*
X502499Y325012D02*
Y327640D01*
X427230Y330711D02*
Y432311D01*
X508230Y330711D02*
Y432311D01*
X427230Y330711D02*
X508230D01*
X427230Y432311D02*
X508230D01*
X495362Y325012D02*
X502499D01*
X495361Y325013D02*
X495362Y325012D01*
X495361Y325011D02*
Y327640D01*
X496861Y329425D02*
Y330711D01*
X495359Y327642D02*
X496861Y329425D01*
X300500Y288000D02*
X340100D01*
X301200Y436112D02*
X340800D01*
X345000Y106200D02*
Y145800D01*
X411680Y329104D02*
Y432104D01*
X375680Y329104D02*
X424180D01*
X375680Y432104D02*
X424180D01*
Y329104D02*
Y432104D01*
X375680Y329104D02*
Y432104D01*
X411680Y223186D02*
Y326186D01*
X375680Y223186D02*
X424180D01*
X375680Y326186D02*
X424180D01*
Y223186D02*
Y326186D01*
X375680Y223186D02*
Y326186D01*
X411426Y117522D02*
Y220522D01*
X375426Y117522D02*
X423926D01*
X375426Y220522D02*
X423926D01*
Y117522D02*
Y220522D01*
X375426Y117522D02*
Y220522D01*
X252900Y366112D02*
Y376112D01*
X247900Y371112D02*
X257900D01*
X467729Y266384D02*
Y276384D01*
X462729Y271384D02*
X472729D01*
X467584Y156148D02*
Y166148D01*
X462584Y161148D02*
X472584D01*
X467729Y376512D02*
Y386512D01*
X462729Y381512D02*
X472729D01*
X320300Y268000D02*
Y278000D01*
X315300Y273000D02*
X325300D01*
X316000Y421112D02*
X326000D01*
X321000Y416112D02*
Y426112D01*
X330000Y121000D02*
Y131000D01*
X325000Y126000D02*
X335000D01*
X397480Y375604D02*
Y385604D01*
X392480Y380604D02*
X402480D01*
X397480Y269686D02*
Y279686D01*
X392480Y274686D02*
X402480D01*
X397226Y164022D02*
Y174022D01*
X392226Y169022D02*
X402226D01*
D14*
X211400Y319313D02*
X294400D01*
X294399D02*
Y428611D01*
X211400Y319313D02*
Y428611D01*
X294399D01*
X426229Y323183D02*
X509230D01*
X426230Y213885D02*
Y323183D01*
X509230Y213885D02*
Y323183D01*
X426230Y213885D02*
X509230D01*
X426085Y212947D02*
X509085D01*
X426085Y103649D02*
Y212947D01*
X509085Y103649D02*
Y212947D01*
X426085Y103649D02*
X509085D01*
X426229Y433311D02*
X509230D01*
X426230Y324013D02*
Y433311D01*
X509230Y324013D02*
Y433311D01*
X426230Y324013D02*
X509230D01*
X373180Y326604D02*
X426680D01*
X373180Y434604D02*
X426680D01*
Y326604D02*
Y434604D01*
X373180Y326604D02*
Y434604D01*
Y220686D02*
X426680D01*
X373180Y328686D02*
X426680D01*
Y220686D02*
Y328686D01*
X373180Y220686D02*
Y328686D01*
X372926Y115022D02*
X426426D01*
X372926Y223022D02*
X426426D01*
Y115022D02*
Y223022D01*
X372926Y115022D02*
Y223022D01*
M02*
