%FSTAX23Y23*%
%MOIN*%
%SFA1B1*%

%IPPOS*%
%ADD11C,0.010000*%
%ADD15C,0.070870*%
%ADD16R,0.070870X0.070870*%
%ADD17C,0.055120*%
%ADD18C,0.039370*%
%LNpcb_sensores-1*%
%LPD*%
G54D11*
X03621Y03919D02*
Y047D01*
X03618Y03916D02*
X03621Y03919D01*
X03618Y03916D02*
X05508D01*
Y047*
X03621D02*
X05508D01*
G54D15*
X05075Y04485D03*
Y04385D03*
Y04285D03*
X04825Y04485D03*
Y04385D03*
Y04285D03*
X04575Y04485D03*
Y04385D03*
Y04285D03*
X04325Y04485D03*
Y04385D03*
Y04285D03*
X04075Y04485D03*
Y04385D03*
Y04285D03*
X05326Y04485D03*
Y04385D03*
Y04285D03*
X03823Y04485D03*
Y04385D03*
Y04285D03*
G54D16*
X05075Y04185D03*
X04825D03*
X04575D03*
X04325D03*
X04075D03*
X05326D03*
X03823D03*
G54D17*
X05048Y04045D03*
X05348D03*
X041D03*
X038D03*
X0505Y03966D03*
X0535D03*
X041Y03965D03*
X038D03*
G54D18*
X04075Y04185D02*
X04325D01*
X04575*
X04825*
X04575Y04285D02*
X04825D01*
X04325D02*
X04575D01*
X04075D02*
X04325D01*
X05284Y03966D02*
X0535D01*
X0523Y0402D02*
X05284Y03966D01*
X0523Y0402D02*
Y04235D01*
X0528Y04285*
X05326*
X05162Y04022D02*
Y04236D01*
X05113Y04285D02*
X05162Y04236D01*
X05075Y04285D02*
X05113D01*
X05106Y03966D02*
X05162Y04022D01*
X0505Y03966D02*
X05106D01*
X03984Y0425D02*
X04019Y04285D01*
X03984Y0399D02*
Y0425D01*
Y0399D02*
X04008Y03965D01*
X041*
X04019Y04285D02*
X04075D01*
X03904Y03999D02*
Y0425D01*
X03871Y03965D02*
X03904Y03999D01*
X038Y03965D02*
X03871D01*
X03869Y04285D02*
X03904Y0425D01*
X03823Y04285D02*
X03869D01*
X041Y04045D02*
Y04159D01*
X04075Y04185D02*
X041Y04159D01*
X038Y04045D02*
Y04161D01*
X03823Y04185*
X04097Y04048D02*
X041Y04045D01*
X05326Y04071D02*
X05348Y04049D01*
X05326Y04071D02*
Y04185D01*
X05348Y04045D02*
Y04049D01*
X05048D02*
X05075Y04075D01*
X05048Y04045D02*
Y04049D01*
X05075Y04075D02*
Y04185D01*
X03823Y04385D02*
X04075D01*
X03823Y04485D02*
X04075D01*
X05075Y04385D02*
X05326D01*
X05075Y04485D02*
X05326D01*
X04075Y04385D02*
X04325D01*
X04575*
X04825*
X05075*
X04075Y04485D02*
X04325D01*
X04575*
X04825*
X05075*
M02*