%FSTAX23Y23*%
%MOIN*%
%SFA1B1*%

%IPPOS*%
%ADD10C,0.007870*%
%ADD11C,0.010000*%
%LNpcb_sensores-1*%
%LPD*%
G54D10*
X04935Y04086D02*
X05171D01*
X04935D02*
Y04583D01*
X05171Y04086D02*
Y04583D01*
X04935D02*
X05171D01*
X04685Y04086D02*
X04921D01*
X04685D02*
Y04583D01*
X04921Y04086D02*
Y04583D01*
X04685D02*
X04921D01*
X04435Y04086D02*
X04671D01*
X04435D02*
Y04583D01*
X04671Y04086D02*
Y04583D01*
X04435D02*
X04671D01*
X04185Y04086D02*
X04421D01*
X04185D02*
Y04583D01*
X04421Y04086D02*
Y04583D01*
X04185D02*
X04421D01*
X03935Y04086D02*
X04171D01*
X03935D02*
Y04583D01*
X04171Y04086D02*
Y04583D01*
X03935D02*
X04171D01*
X05187Y04086D02*
X05423D01*
X05187D02*
Y04583D01*
X05423Y04086D02*
Y04583D01*
X05187D02*
X05423D01*
X03684Y04086D02*
X0392D01*
X03684D02*
Y04583D01*
X0392Y04086D02*
Y04583D01*
X03684D02*
X0392D01*
X05098Y04015D02*
Y04045D01*
Y04015D02*
X05298D01*
Y04075*
X05098D02*
X05298D01*
X05098Y04045D02*
Y04075D01*
X05298Y04045D02*
X05307D01*
X05089D02*
X05098D01*
X0405Y04015D02*
Y04045D01*
X0385Y04015D02*
X0405D01*
X0385D02*
Y04075D01*
X0405*
Y04045D02*
Y04075D01*
X03841Y04045D02*
X0385D01*
X0405D02*
X04059D01*
X051Y03936D02*
Y03966D01*
Y03936D02*
X053D01*
Y03996*
X051D02*
X053D01*
X051Y03966D02*
Y03996D01*
X053Y03966D02*
X05309D01*
X05091D02*
X051D01*
X0405Y03935D02*
Y03965D01*
X0385Y03935D02*
X0405D01*
X0385D02*
Y03995D01*
X0405*
Y03965D02*
Y03995D01*
X03841Y03965D02*
X0385D01*
X0405D02*
X04059D01*
G54D11*
X04981Y04666D02*
X04971Y04676D01*
X04951*
X04941Y04666*
Y04656*
X04951Y04646*
X04971*
X04981Y04636*
Y04626*
X04971Y04616*
X04951*
X04941Y04626*
X05041Y04676D02*
X05001D01*
Y04646*
X05021Y04656*
X05031*
X05041Y04646*
Y04626*
X05031Y04616*
X05011*
X05001Y04626*
X04731Y04666D02*
X04721Y04676D01*
X04701*
X04691Y04666*
Y04656*
X04701Y04646*
X04721*
X04731Y04636*
Y04626*
X04721Y04616*
X04701*
X04691Y04626*
X04781Y04616D02*
Y04676D01*
X04751Y04646*
X04791*
X04481Y04666D02*
X04471Y04676D01*
X04451*
X04441Y04666*
Y04656*
X04451Y04646*
X04471*
X04481Y04636*
Y04626*
X04471Y04616*
X04451*
X04441Y04626*
X04501Y04666D02*
X04511Y04676D01*
X04531*
X04541Y04666*
Y04656*
X04531Y04646*
X04521*
X04531*
X04541Y04636*
Y04626*
X04531Y04616*
X04511*
X04501Y04626*
X04231Y04666D02*
X04221Y04676D01*
X04201*
X04191Y04666*
Y04656*
X04201Y04646*
X04221*
X04231Y04636*
Y04626*
X04221Y04616*
X04201*
X04191Y04626*
X04291Y04616D02*
X04251D01*
X04291Y04656*
Y04666*
X04281Y04676*
X04261*
X04251Y04666*
X03981D02*
X03971Y04676D01*
X03951*
X03941Y04666*
Y04656*
X03951Y04646*
X03971*
X03981Y04636*
Y04626*
X03971Y04616*
X03951*
X03941Y04626*
X04001Y04616D02*
X04021D01*
X04011*
Y04676*
X04001Y04666*
X03862Y04074D02*
Y04014D01*
X03892*
X03902Y04024*
Y04044*
X03892Y04054*
X03862*
X03882D02*
X03902Y04074D01*
X03962Y04024D02*
X03952Y04014D01*
X03932*
X03922Y04024*
Y04034*
X03932Y04044*
X03952*
X03962Y04054*
Y04064*
X03952Y04074*
X03932*
X03922Y04064*
X03982Y04014D02*
Y04074D01*
X04012*
X04022Y04064*
Y04024*
X04012Y04014*
X03982*
X05277Y04076D02*
Y04016D01*
X05247*
X05237Y04026*
Y04046*
X05247Y04056*
X05277*
X05257D02*
X05237Y04076D01*
X05217Y04016D02*
Y04076D01*
X05187*
X05177Y04066*
Y04026*
X05187Y04016*
X05217*
X05157Y04076D02*
X05137D01*
X05147*
Y04016*
X05157Y04026*
X03864Y03993D02*
Y03933D01*
X03894*
X03904Y03943*
Y03963*
X03894Y03973*
X03864*
X03884D02*
X03904Y03993D01*
X03964Y03943D02*
X03954Y03933D01*
X03934*
X03924Y03943*
Y03953*
X03934Y03963*
X03954*
X03964Y03973*
Y03983*
X03954Y03993*
X03934*
X03924Y03983*
X04024Y03943D02*
X04014Y03933D01*
X03994*
X03984Y03943*
Y03983*
X03994Y03993*
X04014*
X04024Y03983*
X05265Y03993D02*
Y03933D01*
X05235*
X05225Y03943*
Y03963*
X05235Y03973*
X05265*
X05245D02*
X05225Y03993D01*
X05165Y03943D02*
X05175Y03933D01*
X05195*
X05205Y03943*
Y03983*
X05195Y03993*
X05175*
X05165Y03983*
X05145Y03993D02*
X05125D01*
X05135*
Y03933*
X05145Y03943*
X05223Y04676D02*
X05203D01*
X05193Y04666*
Y04626*
X05203Y04616*
X05223*
X05233Y04626*
Y04666*
X05223Y04676*
X05253D02*
Y04626D01*
X05263Y04616*
X05283*
X05293Y04626*
Y04676*
X05313D02*
X05353D01*
X05333*
Y04616*
X05413D02*
X05373D01*
X05413Y04656*
Y04666*
X05403Y04676*
X05383*
X05373Y04666*
X0372Y04676D02*
X037D01*
X0369Y04666*
Y04626*
X037Y04616*
X0372*
X0373Y04626*
Y04666*
X0372Y04676*
X0375D02*
Y04626D01*
X0376Y04616*
X0378*
X0379Y04626*
Y04676*
X0381D02*
X0385D01*
X0383*
Y04616*
X0387D02*
X0389D01*
X0388*
Y04676*
X0387Y04666*
X03621Y03844D02*
X05508D01*
X03621D02*
Y03919D01*
Y047*
X05508Y03844D02*
Y047D01*
X03621D02*
X05508D01*
M02*