G04*
G04 #@! TF.GenerationSoftware,Altium Limited,Altium Designer,19.0.15 (446)*
G04*
G04 Layer_Color=255*
%FSLAX44Y44*%
%MOMM*%
G71*
G01*
G75*
%ADD12C,0.2540*%
%ADD21R,2.5400X2.3368*%
%ADD22R,2.6924X2.3368*%
%ADD23C,3.0480*%
%ADD24C,1.4000*%
%ADD25C,2.0000*%
%ADD26R,2.0000X2.0000*%
%ADD27O,2.0000X1.0000*%
%ADD28O,2.0000X1.0000*%
%ADD29C,1.8000*%
%ADD30R,1.8000X1.8000*%
%ADD31O,1.8000X1.4000*%
%ADD32O,1.4000X1.8000*%
%ADD33C,1.7000*%
%ADD34R,1.7000X1.7000*%
D12*
X956564Y723900D02*
X1927860D01*
X1928114Y723646D01*
Y282194D02*
Y723646D01*
X1924050Y278130D02*
X1928114Y282194D01*
X957834Y278130D02*
X1924050D01*
X956564Y279400D02*
X957834Y278130D01*
X956564Y279400D02*
Y723900D01*
X1915414Y280924D02*
X1916938Y279400D01*
D21*
X1887982Y564642D02*
D03*
X1378458Y351028D02*
D03*
Y564642D02*
D03*
D22*
X1887982Y351028D02*
D03*
D23*
X1365504Y627888D02*
D03*
X1315504D02*
D03*
X1262634D02*
D03*
X1212634D02*
D03*
X1146810D02*
D03*
X1096810D02*
D03*
X1034034Y422002D02*
D03*
Y372002D02*
D03*
X1034288Y475126D02*
D03*
Y525126D02*
D03*
X1152106Y381508D02*
D03*
X1102106D02*
D03*
X1521244Y627888D02*
D03*
X1571244D02*
D03*
X1623968Y627634D02*
D03*
X1673968D02*
D03*
X1726838Y627888D02*
D03*
X1776838D02*
D03*
X1829708Y628142D02*
D03*
X1879708D02*
D03*
X1418482Y627888D02*
D03*
X1468482D02*
D03*
D24*
X1221994Y446024D02*
D03*
X1298194D02*
D03*
X1221994Y465836D02*
D03*
X1298194D02*
D03*
X1308608Y372364D02*
D03*
X1232408D02*
D03*
X1350518Y565404D02*
D03*
X1096518Y507238D02*
D03*
X1172718D02*
D03*
X1193546Y565658D02*
D03*
Y489458D02*
D03*
X1172718Y486918D02*
D03*
X1096518D02*
D03*
D25*
X1280414Y405384D02*
D03*
X1255014D02*
D03*
D26*
X1229614D02*
D03*
D27*
X1340866Y406654D02*
D03*
Y381254D02*
D03*
X1339596Y468000D02*
D03*
Y433000D02*
D03*
X1171702Y462826D02*
D03*
Y437426D02*
D03*
D28*
X1340866Y393954D02*
D03*
X1339596Y450342D02*
D03*
X1171702Y450126D02*
D03*
D29*
X1024128Y603758D02*
D03*
Y578358D02*
D03*
D30*
Y629158D02*
D03*
D31*
X1242822Y507238D02*
D03*
X1319022D02*
D03*
X1319276Y487172D02*
D03*
X1243076D02*
D03*
D32*
X1350518Y489204D02*
D03*
D33*
X1261872Y548640D02*
D03*
X1287272D02*
D03*
X1106424Y546100D02*
D03*
X1131824D02*
D03*
D34*
X1312672Y548640D02*
D03*
X1157224Y546100D02*
D03*
M02*
