M48
;Layer_Color=9474304
;FILE_FORMAT=4:4
METRIC,LZ
;TYPE=PLATED
T1F00S00C0.8500
T2F00S00C0.9000
T3F00S00C1.0000
T4F00S00C1.1000
T5F00S00C1.2700
T6F00S00C1.5240
%
T01
X01232408Y00372364
X01308608
X01298194Y00446024
Y00465836
X01319276Y00487172
X01319022Y00507238
X01350518Y00489204
Y00565404
X01193546Y00565658
Y00489458
X01243076Y00487172
X01242822Y00507238
X01221994Y00465836
Y00446024
X01172718Y00486918
Y00507238
X01096518
Y00486918
T02
X01340866Y00381254
Y00393954
Y00406654
X01339596Y00433
Y00450342
Y00468
X01171702Y00462826
Y00450126
Y00437426
T03
X01024128Y00578358
Y00603758
Y00629158
T04
X01229614Y00405384
X01255014
X01280414
X01287272Y0054864
X01261872
X01312672
X01157224Y005461
X01131824
X01106424
T05
X01378458Y00351028
X01887982
Y00564642
X01378458
T06
X01034034Y00372002
X01102106Y00381508
X01152106
X01623968Y00627634
X01673968
X01726838Y00627888
X01776838
X01829708Y00628142
X01879708
X01571244Y00627888
X01521244
X01468482
X01418482
X01365504
X01315504
X01262634
X01212634
X0114681
X0109681
X01034288Y00525126
Y00475126
X01034034Y00422002
M30
