G04*
G04 #@! TF.GenerationSoftware,Altium Limited,Altium Designer,19.0.15 (446)*
G04*
G04 Layer_Color=32768*
%FSLAX44Y44*%
%MOMM*%
G71*
G01*
G75*
%ADD12C,0.2540*%
%ADD50C,0.1000*%
%ADD51C,0.0500*%
D12*
X956564Y723900D02*
X1927860D01*
X1928114Y723646D01*
Y282194D02*
Y723646D01*
X1924050Y278130D02*
X1928114Y282194D01*
X957834Y278130D02*
X1924050D01*
X956564Y279400D02*
X957834Y278130D01*
X956564Y279400D02*
Y723900D01*
X1915414Y280924D02*
X1916938Y279400D01*
D50*
X1250014Y405384D02*
X1260014D01*
X1255014Y400384D02*
Y410384D01*
X1335866Y393954D02*
X1345866D01*
X1340866Y388954D02*
Y398954D01*
X1282272Y548640D02*
X1292272D01*
X1287272Y543640D02*
Y553640D01*
X1334596Y450342D02*
X1344596D01*
X1339596Y445342D02*
Y455342D01*
X1126824Y546100D02*
X1136824D01*
X1131824Y541100D02*
Y551100D01*
X1166702Y450126D02*
X1176702D01*
X1171702Y445126D02*
Y455126D01*
D51*
X1309014Y381084D02*
Y434584D01*
X1201014Y381084D02*
Y434584D01*
X1309014D01*
X1201014Y381084D02*
X1309014D01*
X1233272Y519440D02*
Y572940D01*
X1341272Y519440D02*
Y572940D01*
X1233272Y519440D02*
X1341272D01*
X1233272Y572940D02*
X1341272D01*
X1077824Y516900D02*
Y570400D01*
X1185824Y516900D02*
Y570400D01*
X1077824Y516900D02*
X1185824D01*
X1077824Y570400D02*
X1185824D01*
M02*
