G04*
G04 #@! TF.GenerationSoftware,Altium Limited,Altium Designer,19.0.15 (446)*
G04*
G04 Layer_Color=16711935*
%FSLAX44Y44*%
%MOMM*%
G71*
G01*
G75*
%ADD12C,0.2540*%
G36*
X1454662Y331066D02*
Y331046D01*
Y331027D01*
X1454642Y330912D01*
X1454623Y330797D01*
X1454546Y330682D01*
X1454527Y330662D01*
X1454489Y330643D01*
X1454393Y330605D01*
X1454297Y330586D01*
X1454277D01*
X1454201Y330605D01*
X1454124Y330624D01*
X1454047Y330682D01*
X1454028Y330701D01*
X1454009Y330778D01*
X1453970Y330893D01*
X1453951Y331066D01*
Y332794D01*
X1448862D01*
Y329088D01*
X1451416D01*
Y329894D01*
Y329914D01*
Y329933D01*
X1451436Y330029D01*
X1451455Y330163D01*
X1451512Y330259D01*
X1451532Y330278D01*
X1451589Y330317D01*
X1451666Y330355D01*
X1451762Y330374D01*
X1451781D01*
X1451858Y330355D01*
X1451935Y330336D01*
X1452012Y330259D01*
X1452031Y330240D01*
X1452069Y330163D01*
X1452108Y330048D01*
X1452127Y329894D01*
Y327571D01*
Y327552D01*
Y327533D01*
X1452108Y327417D01*
X1452088Y327302D01*
X1452012Y327187D01*
X1451992Y327168D01*
X1451954Y327148D01*
X1451858Y327110D01*
X1451762Y327091D01*
X1451743D01*
X1451666Y327110D01*
X1451589Y327129D01*
X1451512Y327187D01*
X1451493Y327206D01*
X1451474Y327283D01*
X1451436Y327398D01*
X1451416Y327571D01*
Y328377D01*
X1448862D01*
Y324306D01*
X1454316D01*
Y326400D01*
Y326419D01*
Y326438D01*
X1454335Y326534D01*
X1454354Y326668D01*
X1454412Y326764D01*
X1454431Y326784D01*
X1454489Y326822D01*
X1454565Y326860D01*
X1454662Y326880D01*
X1454681D01*
X1454758Y326860D01*
X1454834Y326841D01*
X1454911Y326764D01*
X1454930Y326745D01*
X1454969Y326668D01*
X1455007Y326553D01*
X1455026Y326400D01*
Y323596D01*
X1447153D01*
X1447038Y323615D01*
X1446923Y323634D01*
X1446808Y323692D01*
X1446788Y323711D01*
X1446769Y323769D01*
X1446731Y323846D01*
X1446712Y323942D01*
Y323961D01*
X1446731Y324038D01*
X1446750Y324114D01*
X1446808Y324191D01*
X1446827Y324211D01*
X1446904Y324249D01*
X1447019Y324287D01*
X1447192Y324306D01*
X1448152D01*
Y332794D01*
X1447153D01*
X1447038Y332813D01*
X1446923Y332832D01*
X1446808Y332890D01*
X1446788Y332909D01*
X1446769Y332967D01*
X1446731Y333044D01*
X1446712Y333140D01*
Y333159D01*
X1446731Y333236D01*
X1446750Y333312D01*
X1446808Y333389D01*
X1446827Y333408D01*
X1446904Y333447D01*
X1447019Y333485D01*
X1447192Y333504D01*
X1454662D01*
Y331066D01*
D02*
G37*
G36*
X1414221Y333485D02*
X1414298Y333466D01*
X1414317D01*
X1414356Y333428D01*
X1414413Y333389D01*
X1414452Y333332D01*
X1414471Y333312D01*
X1414490Y333274D01*
X1414509Y333216D01*
Y333140D01*
Y333120D01*
Y333082D01*
X1414471Y333024D01*
X1414432Y332948D01*
Y332928D01*
X1414394Y332890D01*
X1414356Y332852D01*
X1414298Y332813D01*
X1414240D01*
X1414144Y332794D01*
X1413568D01*
X1410054Y323596D01*
X1409056D01*
X1405542Y332794D01*
X1404889D01*
X1404793Y332813D01*
X1404774D01*
X1404754Y332852D01*
X1404697Y332890D01*
X1404658Y332948D01*
Y332967D01*
X1404639Y333005D01*
X1404620Y333140D01*
Y333159D01*
Y333197D01*
X1404658Y333332D01*
X1404678Y333351D01*
X1404697Y333389D01*
X1404735Y333428D01*
X1404793Y333466D01*
X1404812D01*
X1404870Y333485D01*
X1404966Y333504D01*
X1407731D01*
X1407808Y333485D01*
X1407884Y333466D01*
X1407904D01*
X1407942Y333428D01*
X1408000Y333389D01*
X1408038Y333332D01*
X1408057Y333312D01*
X1408076Y333274D01*
X1408096Y333216D01*
Y333140D01*
Y333120D01*
Y333082D01*
X1408057Y333024D01*
X1408019Y332948D01*
Y332928D01*
X1407980Y332890D01*
X1407942Y332852D01*
X1407884Y332813D01*
X1407827D01*
X1407731Y332794D01*
X1406291D01*
X1409555Y324306D01*
X1409574D01*
X1412819Y332794D01*
X1411302D01*
X1411206Y332813D01*
X1411187D01*
X1411168Y332852D01*
X1411110Y332890D01*
X1411072Y332948D01*
Y332967D01*
X1411053Y333005D01*
X1411034Y333140D01*
Y333159D01*
Y333197D01*
X1411053Y333255D01*
X1411091Y333332D01*
X1411110Y333351D01*
X1411130Y333389D01*
X1411168Y333428D01*
X1411226Y333466D01*
X1411245D01*
X1411283Y333485D01*
X1411379Y333504D01*
X1414144D01*
X1414221Y333485D01*
D02*
G37*
G36*
X1444945D02*
X1445079Y333466D01*
X1445175Y333389D01*
X1445195Y333370D01*
X1445233Y333332D01*
X1445271Y333236D01*
X1445291Y333140D01*
Y333120D01*
X1445271Y333044D01*
X1445252Y332967D01*
X1445175Y332890D01*
X1445156Y332871D01*
X1445079Y332852D01*
X1444964Y332813D01*
X1444811Y332794D01*
X1444215D01*
Y326841D01*
Y326822D01*
Y326784D01*
Y326688D01*
X1444196Y326592D01*
X1444177Y326457D01*
X1444158Y326323D01*
X1444100Y325958D01*
X1443966Y325574D01*
X1443793Y325151D01*
X1443678Y324940D01*
X1443543Y324729D01*
X1443390Y324518D01*
X1443217Y324326D01*
X1443198Y324306D01*
X1443178Y324287D01*
X1443121Y324230D01*
X1443044Y324172D01*
X1442948Y324095D01*
X1442833Y324019D01*
X1442545Y323826D01*
X1442199Y323634D01*
X1441777Y323481D01*
X1441316Y323366D01*
X1441066Y323346D01*
X1440816Y323327D01*
X1440663D01*
X1440471Y323346D01*
X1440240Y323385D01*
X1439991Y323423D01*
X1439703Y323500D01*
X1439415Y323596D01*
X1439127Y323730D01*
X1439088Y323750D01*
X1439012Y323807D01*
X1438877Y323903D01*
X1438704Y324038D01*
X1438493Y324230D01*
X1438301Y324441D01*
X1438090Y324691D01*
X1437879Y324979D01*
Y324998D01*
X1437859Y325017D01*
X1437802Y325132D01*
X1437725Y325305D01*
X1437629Y325535D01*
X1437533Y325804D01*
X1437456Y326131D01*
X1437399Y326476D01*
X1437379Y326841D01*
Y332794D01*
X1436746D01*
X1436630Y332813D01*
X1436515Y332832D01*
X1436400Y332890D01*
X1436381Y332909D01*
X1436362Y332967D01*
X1436323Y333044D01*
X1436304Y333140D01*
Y333159D01*
X1436323Y333236D01*
X1436362Y333312D01*
X1436419Y333408D01*
X1436438Y333428D01*
X1436496Y333466D01*
X1436611Y333485D01*
X1436784Y333504D01*
X1439453D01*
X1439549Y333485D01*
X1439684Y333466D01*
X1439780Y333389D01*
X1439799Y333370D01*
X1439837Y333332D01*
X1439876Y333236D01*
X1439895Y333140D01*
Y333120D01*
X1439876Y333044D01*
X1439856Y332967D01*
X1439780Y332890D01*
X1439760Y332871D01*
X1439684Y332852D01*
X1439568Y332813D01*
X1439415Y332794D01*
X1438090D01*
Y326841D01*
Y326822D01*
Y326784D01*
Y326726D01*
X1438109Y326649D01*
X1438128Y326419D01*
X1438186Y326150D01*
X1438282Y325843D01*
X1438416Y325497D01*
X1438608Y325171D01*
X1438743Y324998D01*
X1438877Y324844D01*
X1438896D01*
X1438916Y324806D01*
X1439012Y324710D01*
X1439184Y324575D01*
X1439415Y324441D01*
X1439703Y324287D01*
X1440029Y324153D01*
X1440375Y324076D01*
X1440586Y324038D01*
X1440893D01*
X1441028Y324057D01*
X1441201Y324076D01*
X1441393Y324114D01*
X1441604Y324172D01*
X1441834Y324249D01*
X1442045Y324345D01*
X1442065Y324364D01*
X1442142Y324403D01*
X1442257Y324479D01*
X1442391Y324594D01*
X1442564Y324729D01*
X1442718Y324902D01*
X1442890Y325113D01*
X1443063Y325343D01*
X1443082Y325382D01*
X1443140Y325459D01*
X1443198Y325593D01*
X1443294Y325785D01*
X1443370Y325996D01*
X1443428Y326265D01*
X1443486Y326534D01*
X1443505Y326841D01*
Y332794D01*
X1442142D01*
X1442026Y332813D01*
X1441911Y332832D01*
X1441796Y332890D01*
X1441777Y332909D01*
X1441757Y332967D01*
X1441719Y333044D01*
X1441700Y333140D01*
Y333159D01*
X1441719Y333236D01*
X1441738Y333312D01*
X1441796Y333389D01*
X1441815Y333408D01*
X1441892Y333447D01*
X1442007Y333485D01*
X1442180Y333504D01*
X1444849D01*
X1444945Y333485D01*
D02*
G37*
G36*
X1430947D02*
X1431081Y333466D01*
X1431177Y333389D01*
X1431196Y333370D01*
X1431234Y333332D01*
X1431273Y333236D01*
X1431292Y333140D01*
Y333120D01*
X1431273Y333044D01*
X1431254Y332967D01*
X1431177Y332890D01*
X1431158Y332871D01*
X1431081Y332852D01*
X1430966Y332813D01*
X1430812Y332794D01*
X1429122D01*
Y324306D01*
X1433865D01*
Y327129D01*
Y327148D01*
Y327168D01*
X1433884Y327264D01*
X1433904Y327398D01*
X1433961Y327494D01*
X1433981Y327513D01*
X1434038Y327552D01*
X1434115Y327590D01*
X1434211Y327609D01*
X1434230D01*
X1434307Y327590D01*
X1434384Y327571D01*
X1434460Y327494D01*
X1434480Y327475D01*
X1434518Y327398D01*
X1434556Y327283D01*
X1434576Y327129D01*
Y323596D01*
X1426684D01*
X1426568Y323615D01*
X1426453Y323634D01*
X1426338Y323692D01*
X1426319Y323711D01*
X1426299Y323769D01*
X1426261Y323846D01*
X1426242Y323942D01*
Y323961D01*
X1426261Y324038D01*
X1426280Y324114D01*
X1426338Y324191D01*
X1426357Y324211D01*
X1426434Y324249D01*
X1426549Y324287D01*
X1426722Y324306D01*
X1428412D01*
Y332794D01*
X1426684D01*
X1426568Y332813D01*
X1426453Y332832D01*
X1426338Y332890D01*
X1426319Y332909D01*
X1426299Y332967D01*
X1426261Y333044D01*
X1426242Y333140D01*
Y333159D01*
X1426261Y333236D01*
X1426280Y333312D01*
X1426338Y333389D01*
X1426357Y333408D01*
X1426434Y333447D01*
X1426549Y333485D01*
X1426722Y333504D01*
X1430851D01*
X1430947Y333485D01*
D02*
G37*
G36*
X1424014Y324306D02*
X1424494D01*
X1424590Y324287D01*
X1424725Y324268D01*
X1424821Y324191D01*
X1424840Y324172D01*
X1424879Y324134D01*
X1424917Y324038D01*
X1424936Y323942D01*
Y323922D01*
X1424917Y323846D01*
X1424898Y323769D01*
X1424821Y323692D01*
X1424802Y323673D01*
X1424725Y323654D01*
X1424610Y323615D01*
X1424456Y323596D01*
X1421902D01*
X1421787Y323615D01*
X1421672Y323634D01*
X1421557Y323692D01*
X1421537Y323711D01*
X1421518Y323769D01*
X1421480Y323846D01*
X1421461Y323942D01*
Y323961D01*
X1421480Y324038D01*
X1421499Y324114D01*
X1421557Y324191D01*
X1421576Y324211D01*
X1421653Y324249D01*
X1421768Y324287D01*
X1421941Y324306D01*
X1423246D01*
X1422267Y326899D01*
X1417620D01*
X1416660Y324306D01*
X1418042D01*
X1418138Y324287D01*
X1418273Y324268D01*
X1418369Y324191D01*
X1418388Y324172D01*
X1418427Y324134D01*
X1418465Y324038D01*
X1418484Y323942D01*
Y323922D01*
X1418465Y323846D01*
X1418446Y323769D01*
X1418369Y323692D01*
X1418350Y323673D01*
X1418273Y323654D01*
X1418158Y323615D01*
X1418004Y323596D01*
X1415450D01*
X1415335Y323615D01*
X1415220Y323634D01*
X1415105Y323692D01*
X1415085Y323711D01*
X1415066Y323769D01*
X1415028Y323846D01*
X1415009Y323942D01*
Y323961D01*
X1415028Y324038D01*
X1415047Y324114D01*
X1415105Y324191D01*
X1415124Y324211D01*
X1415201Y324249D01*
X1415316Y324287D01*
X1415489Y324306D01*
X1415911D01*
X1419041Y332794D01*
X1416909D01*
X1416794Y332813D01*
X1416679Y332832D01*
X1416564Y332890D01*
X1416545Y332909D01*
X1416526Y332967D01*
X1416487Y333044D01*
X1416468Y333140D01*
Y333159D01*
X1416487Y333236D01*
X1416506Y333312D01*
X1416564Y333389D01*
X1416583Y333408D01*
X1416660Y333447D01*
X1416775Y333485D01*
X1416948Y333504D01*
X1420539D01*
X1424014Y324306D01*
D02*
G37*
%LPC*%
G36*
X1420059Y332794D02*
X1419809D01*
X1417889Y327609D01*
X1421998D01*
X1420059Y332794D01*
D02*
G37*
%LPD*%
D12*
X956564Y723900D02*
X1927860D01*
X1928114Y723646D01*
Y282194D02*
Y723646D01*
X1924050Y278130D02*
X1928114Y282194D01*
X957834Y278130D02*
X1924050D01*
X956564Y279400D02*
X957834Y278130D01*
X956564Y279400D02*
Y723900D01*
X1915414Y280924D02*
X1916938Y279400D01*
M02*
