G04*
G04 #@! TF.GenerationSoftware,Altium Limited,Altium Designer,19.0.15 (446)*
G04*
G04 Layer_Color=12632256*
%FSLAX25Y25*%
%MOIN*%
G70*
G01*
G75*
%ADD12C,0.01000*%
%ADD30C,0.12000*%
%ADD31C,0.05512*%
%ADD32C,0.06693*%
%ADD33R,0.06693X0.06693*%
%ADD34O,0.07874X0.03937*%
%ADD35O,0.07874X0.03937*%
%ADD36C,0.07087*%
%ADD37R,0.07087X0.07087*%
%ADD38O,0.07087X0.05512*%
%ADD39O,0.05512X0.07087*%
%ADD40R,0.10000X0.09200*%
%ADD41R,0.10600X0.09200*%
D12*
X376600Y285000D02*
X759000D01*
X759100Y284900D01*
Y111100D02*
Y284900D01*
X757500Y109500D02*
X759100Y111100D01*
X377100Y109500D02*
X757500D01*
X376600Y110000D02*
X377100Y109500D01*
X376600Y110000D02*
Y285000D01*
X754100Y110600D02*
X754700Y110000D01*
D30*
X537600Y247200D02*
D03*
X517915D02*
D03*
X497100D02*
D03*
X477415D02*
D03*
X451500D02*
D03*
X431815D02*
D03*
X407100Y166143D02*
D03*
Y146457D02*
D03*
X407200Y187057D02*
D03*
Y206743D02*
D03*
X453585Y150200D02*
D03*
X433900D02*
D03*
X598915Y247200D02*
D03*
X618600D02*
D03*
X639357Y247100D02*
D03*
X659043D02*
D03*
X679857Y247200D02*
D03*
X699543D02*
D03*
X720357Y247300D02*
D03*
X740043D02*
D03*
X558457Y247200D02*
D03*
X578143D02*
D03*
D31*
X481100Y175600D02*
D03*
X511100D02*
D03*
X481100Y183400D02*
D03*
X511100D02*
D03*
X515200Y146600D02*
D03*
X485200D02*
D03*
X531700Y222600D02*
D03*
X431700Y199700D02*
D03*
X461700D02*
D03*
X469900Y222700D02*
D03*
Y192700D02*
D03*
X461700Y191700D02*
D03*
X431700D02*
D03*
D32*
X506200Y160000D02*
D03*
X496200D02*
D03*
X496800Y216000D02*
D03*
X506800D02*
D03*
X435600Y215000D02*
D03*
X445600D02*
D03*
D33*
X486200Y160000D02*
D03*
X516800Y216000D02*
D03*
X455600Y215000D02*
D03*
D34*
X527900Y160100D02*
D03*
Y150100D02*
D03*
X527400Y184252D02*
D03*
Y170472D02*
D03*
X468100Y183400D02*
D03*
Y173400D02*
D03*
D35*
X527900Y155100D02*
D03*
X527400Y177300D02*
D03*
X468100Y178400D02*
D03*
D36*
X403200Y237700D02*
D03*
Y227700D02*
D03*
D37*
Y247700D02*
D03*
D38*
X489300Y199700D02*
D03*
X519300D02*
D03*
X519400Y191800D02*
D03*
X489400D02*
D03*
D39*
X531700Y192600D02*
D03*
D40*
X542700Y222300D02*
D03*
Y138200D02*
D03*
X743300Y222300D02*
D03*
D41*
Y138200D02*
D03*
M02*
