G04*
G04 #@! TF.GenerationSoftware,Altium Limited,Altium Designer,19.0.15 (446)*
G04*
G04 Layer_Color=16711935*
%FSLAX25Y25*%
%MOIN*%
G70*
G01*
G75*
%ADD12C,0.01000*%
%ADD45C,0.00394*%
D12*
X376600Y285000D02*
X759000D01*
X759100Y284900D01*
Y111100D02*
Y284900D01*
X757500Y109500D02*
X759100Y111100D01*
X377100Y109500D02*
X757500D01*
X376600Y110000D02*
X377100Y109500D01*
X376600Y110000D02*
Y285000D01*
X754100Y110600D02*
X754700Y110000D01*
D45*
X533806Y162895D02*
G03*
X533806Y147305I-5906J-7795D01*
G01*
X533306Y185095D02*
G03*
X533306Y169505I-5906J-7795D01*
G01*
X474006Y186195D02*
G03*
X474006Y170605I-5906J-7795D01*
G01*
X475924Y165591D02*
X516476D01*
Y151417D02*
Y170512D01*
X475924Y151417D02*
Y170512D01*
X516476D01*
X475924Y151417D02*
X516476D01*
X533806Y147305D02*
Y162895D01*
X486524Y210409D02*
X527076D01*
X486524Y205488D02*
Y224583D01*
X527076Y205488D02*
Y224583D01*
X486524Y205488D02*
X527076D01*
X486524Y224583D02*
X527076D01*
X533306Y169505D02*
Y185095D01*
X425324Y209409D02*
X465876D01*
X425324Y204488D02*
Y223583D01*
X465876Y204488D02*
Y223583D01*
X425324Y204488D02*
X465876D01*
X425324Y223583D02*
X465876D01*
X474006Y170605D02*
Y186195D01*
M02*
