G04*
G04 #@! TF.GenerationSoftware,Altium Limited,Altium Designer,19.0.15 (446)*
G04*
G04 Layer_Color=32768*
%FSLAX25Y25*%
%MOIN*%
G70*
G01*
G75*
%ADD12C,0.01000*%
%ADD45C,0.00394*%
%ADD46C,0.00197*%
D12*
X376600Y285000D02*
X759000D01*
X759100Y284900D01*
Y111100D02*
Y284900D01*
X757500Y109500D02*
X759100Y111100D01*
X377100Y109500D02*
X757500D01*
X376600Y110000D02*
X377100Y109500D01*
X376600Y110000D02*
Y285000D01*
X754100Y110600D02*
X754700Y110000D01*
D45*
X494232Y160000D02*
X498169D01*
X496200Y158032D02*
Y161969D01*
X525932Y155100D02*
X529869D01*
X527900Y153132D02*
Y157069D01*
X504832Y216000D02*
X508769D01*
X506800Y214032D02*
Y217969D01*
X525432Y177300D02*
X529369D01*
X527400Y175332D02*
Y179269D01*
X443632Y215000D02*
X447569D01*
X445600Y213032D02*
Y216969D01*
X466132Y178400D02*
X470069D01*
X468100Y176432D02*
Y180369D01*
D46*
X517460Y150433D02*
Y171496D01*
X474940Y150433D02*
Y171496D01*
X517460D01*
X474940Y150433D02*
X517460D01*
X485540Y204504D02*
Y225567D01*
X528060Y204504D02*
Y225567D01*
X485540Y204504D02*
X528060D01*
X485540Y225567D02*
X528060D01*
X424340Y203504D02*
Y224567D01*
X466860Y203504D02*
Y224567D01*
X424340Y203504D02*
X466860D01*
X424340Y224567D02*
X466860D01*
M02*
