%FSTAX23Y23*%
%MOIN*%
%SFA1B1*%

%IPPOS*%
%ADD10C,0.009843*%
%ADD11C,0.007874*%
%ADD12C,0.010000*%
%ADD13R,0.078740X0.039370*%
%ADD14R,0.078740X0.059055*%
%ADD15R,0.059055X0.078740*%
%ADD16R,0.039370X0.078740*%
%ADD17R,0.078744X0.039370*%
%LNpcb1-1*%
%LPD*%
G54D10*
X04717Y01596D02*
D01*
X04717Y01596*
X04717Y01596*
X04717Y01597*
X04717Y01597*
X04717Y01597*
X04717Y01598*
X04716Y01598*
X04716Y01598*
X04716Y01598*
X04716Y01599*
X04716Y01599*
X04715Y01599*
X04715Y01599*
X04715Y016*
X04715Y016*
X04714Y016*
X04714Y016*
X04714Y016*
X04713Y016*
X04713Y016*
X04713Y016*
X04712Y016*
X04712*
X04712Y016*
X04711Y016*
X04711Y016*
X04711Y016*
X0471Y016*
X0471Y016*
X0471Y016*
X04709Y016*
X04709Y01599*
X04709Y01599*
X04709Y01599*
X04708Y01599*
X04708Y01598*
X04708Y01598*
X04708Y01598*
X04708Y01598*
X04708Y01597*
X04707Y01597*
X04707Y01597*
X04707Y01596*
X04707Y01596*
X04707Y01596*
X04707Y01595*
X04707Y01595*
X04707Y01594*
X04707Y01594*
X04708Y01594*
X04708Y01593*
X04708Y01593*
X04708Y01593*
X04708Y01593*
X04708Y01592*
X04709Y01592*
X04709Y01592*
X04709Y01592*
X04709Y01591*
X0471Y01591*
X0471Y01591*
X0471Y01591*
X04711Y01591*
X04711Y01591*
X04711Y01591*
X04712Y01591*
X04712Y01591*
X04712*
X04713Y01591*
X04713Y01591*
X04713Y01591*
X04714Y01591*
X04714Y01591*
X04714Y01591*
X04715Y01591*
X04715Y01591*
X04715Y01592*
X04715Y01592*
X04716Y01592*
X04716Y01592*
X04716Y01593*
X04716Y01593*
X04716Y01593*
X04717Y01593*
X04717Y01594*
X04717Y01594*
X04717Y01594*
X04717Y01595*
X04717Y01595*
X04717Y01596*
X05337Y01439D02*
D01*
X05337Y01439*
X05337Y0144*
X05336Y0144*
X05336Y0144*
X05336Y01441*
X05336Y01441*
X05336Y01441*
X05336Y01442*
X05336Y01442*
X05335Y01442*
X05335Y01443*
X05335Y01443*
X05335Y01443*
X05334Y01443*
X05334Y01443*
X05334Y01444*
X05333Y01444*
X05333Y01444*
X05333Y01444*
X05333Y01444*
X05332Y01444*
X05332Y01444*
X05331*
X05331Y01444*
X05331Y01444*
X0533Y01444*
X0533Y01444*
X0533Y01444*
X05329Y01444*
X05329Y01443*
X05329Y01443*
X05329Y01443*
X05328Y01443*
X05328Y01443*
X05328Y01442*
X05328Y01442*
X05327Y01442*
X05327Y01441*
X05327Y01441*
X05327Y01441*
X05327Y0144*
X05327Y0144*
X05327Y0144*
X05327Y01439*
X05327Y01439*
X05327Y01439*
X05327Y01438*
X05327Y01438*
X05327Y01438*
X05327Y01437*
X05327Y01437*
X05327Y01437*
X05327Y01436*
X05328Y01436*
X05328Y01436*
X05328Y01436*
X05328Y01435*
X05329Y01435*
X05329Y01435*
X05329Y01435*
X05329Y01435*
X0533Y01435*
X0533Y01434*
X0533Y01434*
X05331Y01434*
X05331Y01434*
X05331Y01434*
X05332*
X05332Y01434*
X05333Y01434*
X05333Y01434*
X05333Y01434*
X05333Y01435*
X05334Y01435*
X05334Y01435*
X05334Y01435*
X05335Y01435*
X05335Y01435*
X05335Y01436*
X05335Y01436*
X05336Y01436*
X05336Y01436*
X05336Y01437*
X05336Y01437*
X05336Y01437*
X05336Y01438*
X05336Y01438*
X05337Y01438*
X05337Y01439*
X05337Y01439*
X05301Y0216D02*
D01*
X05301Y0216*
X05301Y0216*
X05301Y02161*
X05301Y02161*
X053Y02161*
X053Y02162*
X053Y02162*
X053Y02162*
X053Y02162*
X053Y02163*
X05299Y02163*
X05299Y02163*
X05299Y02163*
X05299Y02164*
X05298Y02164*
X05298Y02164*
X05298Y02164*
X05297Y02164*
X05297Y02164*
X05297Y02164*
X05296Y02164*
X05296Y02164*
X05296*
X05295Y02164*
X05295Y02164*
X05295Y02164*
X05294Y02164*
X05294Y02164*
X05294Y02164*
X05293Y02164*
X05293Y02164*
X05293Y02163*
X05293Y02163*
X05292Y02163*
X05292Y02163*
X05292Y02162*
X05292Y02162*
X05292Y02162*
X05291Y02162*
X05291Y02161*
X05291Y02161*
X05291Y02161*
X05291Y0216*
X05291Y0216*
X05291Y0216*
X05291Y02159*
X05291Y02159*
X05291Y02158*
X05291Y02158*
X05291Y02158*
X05291Y02157*
X05292Y02157*
X05292Y02157*
X05292Y02157*
X05292Y02156*
X05292Y02156*
X05293Y02156*
X05293Y02156*
X05293Y02155*
X05293Y02155*
X05294Y02155*
X05294Y02155*
X05294Y02155*
X05295Y02155*
X05295Y02155*
X05295Y02155*
X05296Y02155*
X05296*
X05296Y02155*
X05297Y02155*
X05297Y02155*
X05297Y02155*
X05298Y02155*
X05298Y02155*
X05298Y02155*
X05299Y02155*
X05299Y02156*
X05299Y02156*
X05299Y02156*
X053Y02156*
X053Y02157*
X053Y02157*
X053Y02157*
X053Y02157*
X053Y02158*
X05301Y02158*
X05301Y02158*
X05301Y02159*
X05301Y02159*
X05301Y0216*
X05332Y01661D02*
D01*
X05332Y01661*
X05332Y01662*
X05331Y01662*
X05331Y01662*
X05331Y01663*
X05331Y01663*
X05331Y01663*
X05331Y01664*
X05331Y01664*
X0533Y01664*
X0533Y01665*
X0533Y01665*
X0533Y01665*
X05329Y01665*
X05329Y01665*
X05329Y01666*
X05328Y01666*
X05328Y01666*
X05328Y01666*
X05328Y01666*
X05327Y01666*
X05327Y01666*
X05326*
X05326Y01666*
X05326Y01666*
X05325Y01666*
X05325Y01666*
X05325Y01666*
X05324Y01666*
X05324Y01665*
X05324Y01665*
X05324Y01665*
X05323Y01665*
X05323Y01665*
X05323Y01664*
X05323Y01664*
X05322Y01664*
X05322Y01663*
X05322Y01663*
X05322Y01663*
X05322Y01662*
X05322Y01662*
X05322Y01662*
X05322Y01661*
X05322Y01661*
X05322Y01661*
X05322Y0166*
X05322Y0166*
X05322Y0166*
X05322Y01659*
X05322Y01659*
X05322Y01659*
X05322Y01658*
X05323Y01658*
X05323Y01658*
X05323Y01658*
X05323Y01657*
X05324Y01657*
X05324Y01657*
X05324Y01657*
X05324Y01657*
X05325Y01657*
X05325Y01656*
X05325Y01656*
X05326Y01656*
X05326Y01656*
X05326Y01656*
X05327*
X05327Y01656*
X05328Y01656*
X05328Y01656*
X05328Y01656*
X05328Y01657*
X05329Y01657*
X05329Y01657*
X05329Y01657*
X0533Y01657*
X0533Y01657*
X0533Y01658*
X0533Y01658*
X05331Y01658*
X05331Y01658*
X05331Y01659*
X05331Y01659*
X05331Y01659*
X05331Y0166*
X05331Y0166*
X05332Y0166*
X05332Y01661*
X05332Y01661*
X04689Y0215D02*
D01*
X04689Y0215*
X04689Y0215*
X04689Y02151*
X04689Y02151*
X04688Y02151*
X04688Y02152*
X04688Y02152*
X04688Y02152*
X04688Y02152*
X04688Y02153*
X04687Y02153*
X04687Y02153*
X04687Y02153*
X04687Y02154*
X04686Y02154*
X04686Y02154*
X04686Y02154*
X04685Y02154*
X04685Y02154*
X04685Y02154*
X04684Y02154*
X04684Y02154*
X04684*
X04683Y02154*
X04683Y02154*
X04683Y02154*
X04682Y02154*
X04682Y02154*
X04682Y02154*
X04681Y02154*
X04681Y02154*
X04681Y02153*
X04681Y02153*
X0468Y02153*
X0468Y02153*
X0468Y02152*
X0468Y02152*
X0468Y02152*
X04679Y02152*
X04679Y02151*
X04679Y02151*
X04679Y02151*
X04679Y0215*
X04679Y0215*
X04679Y0215*
X04679Y02149*
X04679Y02149*
X04679Y02148*
X04679Y02148*
X04679Y02148*
X04679Y02147*
X0468Y02147*
X0468Y02147*
X0468Y02147*
X0468Y02146*
X0468Y02146*
X04681Y02146*
X04681Y02146*
X04681Y02145*
X04681Y02145*
X04682Y02145*
X04682Y02145*
X04682Y02145*
X04683Y02145*
X04683Y02145*
X04683Y02145*
X04684Y02145*
X04684*
X04684Y02145*
X04685Y02145*
X04685Y02145*
X04685Y02145*
X04686Y02145*
X04686Y02145*
X04686Y02145*
X04687Y02145*
X04687Y02146*
X04687Y02146*
X04687Y02146*
X04688Y02146*
X04688Y02147*
X04688Y02147*
X04688Y02147*
X04688Y02147*
X04688Y02148*
X04689Y02148*
X04689Y02148*
X04689Y02149*
X04689Y02149*
X04689Y0215*
X04671Y0166D02*
D01*
X04671Y01661*
X04671Y01661*
X0467Y01661*
X0467Y01662*
X0467Y01662*
X0467Y01662*
X0467Y01663*
X0467Y01663*
X0467Y01663*
X04669Y01663*
X04669Y01664*
X04669Y01664*
X04669Y01664*
X04668Y01664*
X04668Y01664*
X04668Y01665*
X04667Y01665*
X04667Y01665*
X04667Y01665*
X04667Y01665*
X04666Y01665*
X04666Y01665*
X04665*
X04665Y01665*
X04665Y01665*
X04664Y01665*
X04664Y01665*
X04664Y01665*
X04663Y01665*
X04663Y01664*
X04663Y01664*
X04663Y01664*
X04662Y01664*
X04662Y01664*
X04662Y01663*
X04662Y01663*
X04661Y01663*
X04661Y01663*
X04661Y01662*
X04661Y01662*
X04661Y01662*
X04661Y01661*
X04661Y01661*
X04661Y01661*
X04661Y0166*
X04661Y0166*
X04661Y0166*
X04661Y01659*
X04661Y01659*
X04661Y01659*
X04661Y01658*
X04661Y01658*
X04661Y01658*
X04662Y01657*
X04662Y01657*
X04662Y01657*
X04662Y01657*
X04663Y01656*
X04663Y01656*
X04663Y01656*
X04663Y01656*
X04664Y01656*
X04664Y01656*
X04664Y01655*
X04665Y01655*
X04665Y01655*
X04665Y01655*
X04666*
X04666Y01655*
X04667Y01655*
X04667Y01655*
X04667Y01656*
X04667Y01656*
X04668Y01656*
X04668Y01656*
X04668Y01656*
X04669Y01656*
X04669Y01657*
X04669Y01657*
X04669Y01657*
X0467Y01657*
X0467Y01658*
X0467Y01658*
X0467Y01658*
X0467Y01659*
X0467Y01659*
X0467Y01659*
X04671Y0166*
X04671Y0166*
X04671Y0166*
G54D11*
X05338Y01628D02*
D01*
X05332Y01632*
X05326Y01636*
X0532Y01639*
X05314Y01642*
X05307Y01644*
X05301Y01646*
X05294Y01647*
X05287Y01648*
X0528Y01648*
X05274Y01648*
X05267Y01648*
X0526Y01647*
X05253Y01645*
X05247Y01643*
X05241Y01641*
X05234Y01638*
X05228Y01634*
X05223Y01631*
X05217Y01627*
X05212Y01622*
X05207Y01617*
X05203Y01612*
X05199Y01607*
X05195Y01601*
X05191Y01595*
X05189Y01589*
X05186Y01583*
X05184Y01576*
X05183Y01569*
X05181Y01563*
X05181Y01556*
X05181Y01549*
X05181Y01542*
X05182Y01535*
X05183Y01529*
X05185Y01522*
X05187Y01516*
X0519Y01509*
X05193Y01503*
X05196Y01497*
X052Y01492*
X05205Y01487*
X05209Y01482*
X05214Y01477*
X05219Y01473*
X05225Y01469*
X05231Y01465*
X05237Y01462*
X05243Y01459*
X0525Y01457*
X05256Y01455*
X05263Y01454*
X0527Y01453*
X05277Y01453*
X05283Y01453*
X0529Y01453*
X05297Y01454*
X05304Y01456*
X0531Y01458*
X05316Y0146*
X05323Y01463*
X05329Y01467*
X05334Y0147*
X05338Y01473*
X05333Y0185D02*
D01*
X05327Y01854*
X05321Y01858*
X05315Y01861*
X05309Y01864*
X05302Y01866*
X05296Y01868*
X05289Y01869*
X05282Y0187*
X05275Y0187*
X05269Y0187*
X05262Y0187*
X05255Y01869*
X05248Y01867*
X05242Y01865*
X05236Y01863*
X05229Y0186*
X05223Y01856*
X05218Y01853*
X05212Y01849*
X05207Y01844*
X05202Y01839*
X05198Y01834*
X05194Y01829*
X0519Y01823*
X05186Y01817*
X05184Y01811*
X05181Y01805*
X05179Y01798*
X05178Y01791*
X05176Y01785*
X05176Y01778*
X05176Y01771*
X05176Y01764*
X05177Y01757*
X05178Y01751*
X0518Y01744*
X05182Y01738*
X05185Y01731*
X05188Y01725*
X05191Y01719*
X05195Y01714*
X052Y01709*
X05204Y01704*
X05209Y01699*
X05214Y01695*
X0522Y01691*
X05226Y01687*
X05232Y01684*
X05238Y01681*
X05245Y01679*
X05251Y01677*
X05258Y01676*
X05265Y01675*
X05272Y01675*
X05278Y01675*
X05285Y01675*
X05292Y01676*
X05299Y01678*
X05305Y0168*
X05311Y01682*
X05318Y01685*
X05324Y01689*
X05329Y01692*
X05333Y01695*
X04672Y0185D02*
D01*
X04666Y01854*
X0466Y01857*
X04654Y0186*
X04648Y01863*
X04641Y01865*
X04635Y01867*
X04628Y01868*
X04621Y01869*
X04614Y01869*
X04608Y01869*
X04601Y01869*
X04594Y01868*
X04587Y01866*
X04581Y01864*
X04575Y01862*
X04568Y01859*
X04562Y01856*
X04557Y01852*
X04551Y01848*
X04546Y01843*
X04541Y01839*
X04537Y01833*
X04533Y01828*
X04529Y01822*
X04525Y01816*
X04523Y0181*
X0452Y01804*
X04518Y01797*
X04517Y01791*
X04515Y01784*
X04515Y01777*
X04515Y0177*
X04515Y01763*
X04516Y01757*
X04517Y0175*
X04519Y01743*
X04521Y01737*
X04524Y01731*
X04527Y01724*
X0453Y01719*
X04534Y01713*
X04539Y01708*
X04543Y01703*
X04548Y01698*
X04553Y01694*
X04559Y0169*
X04565Y01686*
X04571Y01683*
X04577Y0168*
X04584Y01678*
X0459Y01676*
X04597Y01675*
X04604Y01674*
X04611Y01674*
X04617Y01674*
X04624Y01675*
X04631Y01676*
X04638Y01677*
X04644Y01679*
X0465Y01682*
X04657Y01684*
X04663Y01688*
X04668Y01691*
X04672Y01694*
X04861Y01726D02*
Y01756D01*
Y01726D02*
X05061D01*
Y01786*
X04861D02*
X05061D01*
X04861Y01756D02*
Y01786D01*
X05061Y01756D02*
X0507D01*
X04852D02*
X04861D01*
Y01804D02*
Y01834D01*
Y01804D02*
X05061D01*
Y01864*
X04861D02*
X05061D01*
X04861Y01834D02*
Y01864D01*
X05061Y01834D02*
X0507D01*
X04852D02*
X04861D01*
X04738Y01682D02*
X05143D01*
X04738Y01702D02*
X05143D01*
X04738Y01509D02*
X05143D01*
Y01702*
X04738Y01509D02*
Y01702D01*
X05102Y01466D02*
Y01496D01*
X04902D02*
X05102D01*
X04902Y01436D02*
Y01496D01*
Y01436D02*
X05102D01*
Y01466*
X04893D02*
X04902D01*
X05102D02*
X05111D01*
X05338Y01473D02*
Y01628D01*
X03935Y02573D02*
X04171D01*
X03935Y0218D02*
Y02573D01*
Y0218D02*
X04171D01*
Y02573*
X04943Y01967D02*
Y01997D01*
Y01967D02*
X05143D01*
Y02027*
X04943D02*
X05143D01*
X04943Y01997D02*
Y02027D01*
X05143Y01997D02*
X05152D01*
X04934D02*
X04943D01*
X05287Y02176D02*
X05317D01*
X05287Y01976D02*
Y02176D01*
Y01976D02*
X05347D01*
Y02176*
X05317D02*
X05347D01*
X05317Y01967D02*
Y01976D01*
Y02176D02*
Y02185D01*
X04865Y02073D02*
X0527D01*
X04865Y02053D02*
X0527D01*
X04865Y02246D02*
X0527D01*
X04865Y02053D02*
Y02246D01*
X0527Y02053D02*
Y02246D01*
X05144Y01918D02*
Y01948D01*
X04944D02*
X05144D01*
X04944Y01888D02*
Y01948D01*
Y01888D02*
X05144D01*
Y01918*
X04935D02*
X04944D01*
X05144D02*
X05153D01*
X05333Y01695D02*
Y0185D01*
X04367Y01967D02*
Y01997D01*
Y01967D02*
X04567D01*
Y02027*
X04367D02*
X04567D01*
X04367Y01997D02*
Y02027D01*
X04567Y01997D02*
X04576D01*
X04358D02*
X04367D01*
X04669Y02177D02*
X04699D01*
X04669Y01977D02*
Y02177D01*
Y01977D02*
X04729D01*
Y02177*
X04699D02*
X04729D01*
X04699Y01968D02*
Y01977D01*
Y02177D02*
Y02186D01*
X04253Y02063D02*
X04658D01*
X04253Y02043D02*
X04658D01*
X04253Y02236D02*
X04658D01*
X04253Y02043D02*
Y02236D01*
X04658Y02043D02*
Y02236D01*
X04567Y01917D02*
Y01947D01*
X04367D02*
X04567D01*
X04367Y01887D02*
Y01947D01*
Y01887D02*
X04567D01*
Y01917*
X04358D02*
X04367D01*
X04567D02*
X04576D01*
X04672Y01694D02*
Y0185D01*
G54D12*
X05474Y02314D02*
Y02609D01*
X0508Y02314D02*
Y02609D01*
Y02314D02*
X05474D01*
X0508Y02609D02*
X05474D01*
X05069Y02314D02*
Y02609D01*
X04675Y02314D02*
Y02609D01*
Y02314D02*
X05069D01*
X04675Y02609D02*
X05069D01*
X04613Y02314D02*
Y02609D01*
X04219Y02314D02*
Y02609D01*
Y02314D02*
X04613D01*
X04219Y02609D02*
X04613D01*
X03933Y01366D02*
Y01759D01*
X04228Y01366D02*
Y01759D01*
X03933D02*
X04228D01*
X03933Y01366D02*
X04228D01*
X03934Y01772D02*
X04229D01*
X03934Y02165D02*
X04229D01*
Y01772D02*
Y02165D01*
X03934Y01772D02*
Y02165D01*
X04634Y01364D02*
Y01659D01*
X0424Y01364D02*
Y01659D01*
X04634*
X0424Y01364D02*
X04634D01*
X0589Y02314D02*
Y02609D01*
X06284Y02314D02*
Y02609D01*
X0589Y02314D02*
X06284D01*
X0589Y02609D02*
X06284D01*
X06295Y02313D02*
Y02608D01*
X06688Y02313D02*
Y02608D01*
X06295Y02313D02*
X06688D01*
X06295Y02608D02*
X06688D01*
X067Y02314D02*
Y02609D01*
X07093Y02314D02*
Y02609D01*
X067Y02314D02*
X07093D01*
X067Y02609D02*
X07093D01*
X07105Y02315D02*
Y0261D01*
X07498Y02315D02*
Y0261D01*
X07105Y02315D02*
X07498D01*
X07105Y0261D02*
X07498D01*
X05486Y02314D02*
Y02609D01*
X05879Y02314D02*
Y02609D01*
X05486Y02314D02*
X05879D01*
X05486Y02609D02*
X05879D01*
X05356Y02264D02*
X05396D01*
X05159D02*
X05199D01*
X05179Y02244D02*
Y02284D01*
X04951Y02264D02*
X04991D01*
X04754D02*
X04794D01*
X04774Y02244D02*
Y02284D01*
X04495Y02264D02*
X04535D01*
X04298D02*
X04338D01*
X04318Y02244D02*
Y02284D01*
X04278Y01681D02*
Y01641D01*
X04298Y01661D02*
X04258D01*
X04278Y01484D02*
Y01444D01*
X04279Y0189D02*
Y0185D01*
Y02087D02*
Y02047D01*
X04299Y02067D02*
X04259D01*
X04516Y01709D02*
X04556D01*
X04319D02*
X04359D01*
X04339Y01729D02*
Y01689D01*
X06008Y02264D02*
X05968D01*
X06205D02*
X06165D01*
X06185Y02244D02*
Y02284D01*
X06413Y02263D02*
X06373D01*
X0661D02*
X0657D01*
X0659Y02243D02*
Y02283D01*
X06818Y02264D02*
X06778D01*
X07015D02*
X06975D01*
X06995Y02244D02*
Y02284D01*
X07223Y02265D02*
X07183D01*
X0742D02*
X0738D01*
X074Y02245D02*
Y02285D01*
X05604Y02264D02*
X05564D01*
X05801D02*
X05761D01*
X05781Y02244D02*
Y02284D01*
X0446Y02397D02*
Y02338D01*
X0442*
X044Y02387D02*
X0439Y02397D01*
X0437*
X0436Y02387*
Y02377*
X0437Y02367*
X0438*
X0437*
X0436Y02357*
Y02347*
X0437Y02338*
X0439*
X044Y02347*
X04909Y02401D02*
Y02342D01*
X04869*
X04809D02*
X04849D01*
X04809Y02381*
Y02391*
X04819Y02401*
X04839*
X04849Y02391*
X0531Y02401D02*
Y02342D01*
X0527*
X0525D02*
X0523D01*
X0524*
Y02401*
X0525Y02391*
X04406Y0211D02*
X04445D01*
X04425*
Y02051*
X04465Y021D02*
X04475Y0211D01*
X04495*
X04505Y021*
Y0209*
X04495Y0208*
X04485*
X04495*
X04505Y0207*
Y0206*
X04495Y02051*
X04475*
X04465Y0206*
X05018Y0212D02*
X05057D01*
X05037*
Y02061*
X05117D02*
X05077D01*
X05117Y021*
Y0211*
X05107Y0212*
X05087*
X05077Y0211*
X04986Y01641D02*
X04946D01*
X04966*
Y01701*
X04926D02*
X04906D01*
X04916*
Y01641*
X04926Y01651*
X04381Y0197D02*
Y02029D01*
X0441*
X0442Y02019*
Y01999*
X0441Y01989*
X04381*
X044D02*
X0442Y0197D01*
X0448Y02019D02*
X0447Y02029D01*
X0445*
X0444Y02019*
Y01979*
X0445Y0197*
X0447*
X0448Y01979*
X045Y02019D02*
X0451Y02029D01*
X0453*
X0454Y02019*
Y02009*
X0453Y01999*
X0452*
X0453*
X0454Y01989*
Y01979*
X0453Y0197*
X0451*
X045Y01979*
X04964Y01969D02*
Y02028D01*
X04993*
X05003Y02018*
Y01998*
X04993Y01988*
X04964*
X04983D02*
X05003Y01969D01*
X05063Y02018D02*
X05053Y02028D01*
X05033*
X05023Y02018*
Y01978*
X05033Y01969*
X05053*
X05063Y01978*
X05123Y01969D02*
X05083D01*
X05123Y02008*
Y02018*
X05113Y02028*
X05093*
X05083Y02018*
X04896Y01727D02*
Y01786D01*
X04925*
X04935Y01776*
Y01756*
X04925Y01746*
X04896*
X04915D02*
X04935Y01727D01*
X04995Y01776D02*
X04985Y01786D01*
X04965*
X04955Y01776*
Y01736*
X04965Y01727*
X04985*
X04995Y01736*
X05015Y01727D02*
X05035D01*
X05025*
Y01786*
X05015Y01776*
X04671Y02154D02*
X0473D01*
Y02124*
X0472Y02114*
X047*
X0469Y02124*
Y02154*
Y02134D02*
X04671Y02114D01*
X0473Y02094D02*
Y02054D01*
Y02074*
X04671*
X0472Y02034D02*
X0473Y02024D01*
Y02004*
X0472Y01994*
X0471*
X047Y02004*
Y02014*
Y02004*
X0469Y01994*
X0468*
X04671Y02004*
Y02024*
X0468Y02034*
X05287Y02153D02*
X05346D01*
Y02123*
X05336Y02113*
X05316*
X05306Y02123*
Y02153*
Y02133D02*
X05287Y02113D01*
X05346Y02093D02*
Y02053D01*
Y02073*
X05287*
Y01993D02*
Y02033D01*
X05326Y01993*
X05336*
X05346Y02003*
Y02023*
X05336Y02033*
X04889Y01803D02*
Y01862D01*
X04918*
X04928Y01852*
Y01832*
X04918Y01822*
X04889*
X04908D02*
X04928Y01803D01*
X04948Y01862D02*
X04988D01*
X04968*
Y01803*
X05008D02*
X05028D01*
X05018*
Y01862*
X05008Y01852*
X04381Y01885D02*
Y01944D01*
X0441*
X0442Y01934*
Y01914*
X0441Y01904*
X04381*
X044D02*
X0442Y01885D01*
X0444Y01944D02*
Y01885D01*
X0447*
X0448Y01894*
Y01904*
X0447Y01914*
X0444*
X0447*
X0448Y01924*
Y01934*
X0447Y01944*
X0444*
X045Y01934D02*
X0451Y01944D01*
X0453*
X0454Y01934*
Y01924*
X0453Y01914*
X0452*
X0453*
X0454Y01904*
Y01894*
X0453Y01885*
X0451*
X045Y01894*
X04967Y01891D02*
Y0195D01*
X04996*
X05006Y0194*
Y0192*
X04996Y0191*
X04967*
X04986D02*
X05006Y01891D01*
X05026Y0195D02*
Y01891D01*
X05056*
X05066Y019*
Y0191*
X05056Y0192*
X05026*
X05056*
X05066Y0193*
Y0194*
X05056Y0195*
X05026*
X05126Y01891D02*
X05086D01*
X05126Y0193*
Y0194*
X05116Y0195*
X05096*
X05086Y0194*
X04937Y01438D02*
Y01497D01*
X04966*
X04976Y01487*
Y01467*
X04966Y01457*
X04937*
X04956D02*
X04976Y01438D01*
X04996Y01497D02*
Y01438D01*
X05026*
X05036Y01447*
Y01457*
X05026Y01467*
X04996*
X05026*
X05036Y01477*
Y01487*
X05026Y01497*
X04996*
X05056Y01438D02*
X05076D01*
X05066*
Y01497*
X05056Y01487*
X04572Y0176D02*
X04532D01*
X04522Y0175*
Y0173*
X04532Y0172*
X04572*
X04582Y0173*
Y0175*
X04562Y0174D02*
X04582Y0176D01*
Y0175D02*
X04572Y0176D01*
X04532Y0178D02*
X04522Y0179D01*
Y0181*
X04532Y0182*
X04542*
X04552Y0181*
Y018*
Y0181*
X04562Y0182*
X04572*
X04582Y0181*
Y0179*
X04572Y0178*
X05232Y01761D02*
X05192D01*
X05182Y01751*
Y01731*
X05192Y01722*
X05232*
X05242Y01731*
Y01751*
X05222Y01741D02*
X05242Y01761D01*
Y01751D02*
X05232Y01761D01*
X05242Y01821D02*
Y01781D01*
X05202Y01821*
X05192*
X05182Y01811*
Y01791*
X05192Y01781*
X05235Y01553D02*
X05195D01*
X05185Y01543*
Y01523*
X05195Y01514*
X05235*
X05245Y01523*
Y01543*
X05225Y01533D02*
X05245Y01553D01*
Y01543D02*
X05235Y01553D01*
X05245Y01573D02*
Y01593D01*
Y01583*
X05185*
X05195Y01573*
X04154Y02511D02*
Y02491D01*
Y02501*
X04095*
Y02511*
Y02491*
Y02461D02*
X04154D01*
X04095Y02421*
X04154*
X04095Y02401D02*
X04154D01*
Y02371*
X04144Y02361*
X04124*
X04114Y02371*
Y02401*
X04154Y02341D02*
X04104D01*
X04095Y02331*
Y02311*
X04104Y02301*
X04154*
Y02281D02*
Y02241D01*
Y02261*
X04095*
X06614Y02101D02*
Y0216D01*
X06643*
X06653Y0215*
Y0213*
X06643Y0212*
X06614*
X06633D02*
X06653Y02101D01*
X06713Y0216D02*
X06673D01*
Y02101*
X06713*
X06673Y0213D02*
X06693D01*
X06773Y0215D02*
X06763Y0216D01*
X06743*
X06733Y0215*
Y0211*
X06743Y02101*
X06763*
X06773Y0211*
Y0213*
X06753*
X06793Y02101D02*
X06813D01*
X06803*
Y0216*
X06793Y0215*
X06107Y02415D02*
X06127D01*
X06117*
Y02365*
X06127Y02356*
X06137*
X06147Y02365*
X06087D02*
X06077Y02356D01*
X06057*
X06047Y02365*
Y02405*
X06057Y02415*
X06077*
X06087Y02405*
Y02395*
X06077Y02385*
X06047*
X06483Y02407D02*
X06463Y02408D01*
X06473Y02407*
X06471Y02357*
X0646Y02348*
X0645Y02348*
X06441Y02358*
X06503Y02396D02*
X06513Y02405D01*
X06533Y02404*
X06543Y02394*
X06542Y02384*
X06532Y02374*
X06522Y02375*
X06532Y02374*
X06541Y02364*
X06541Y02354*
X0653Y02344*
X0651Y02345*
X06501Y02356*
X06881Y02408D02*
X06861D01*
X06871*
Y02358*
X06861Y02349*
X06851*
X06842Y02358*
X06941Y02349D02*
X06901D01*
X06941Y02388*
Y02398*
X06931Y02408*
X06911*
X06901Y02398*
X04133Y01532D02*
Y01512D01*
Y01522*
X04183*
X04193Y01512*
Y01502*
X04183Y01493*
X04143Y01552D02*
X04133Y01562D01*
Y01582*
X04143Y01592*
X04153*
X04163Y01582*
X04173Y01592*
X04183*
X04193Y01582*
Y01562*
X04183Y01552*
X04173*
X04163Y01562*
X04153Y01552*
X04143*
X04163Y01562D02*
Y01582D01*
X04139Y0195D02*
Y0193D01*
Y0194*
X04189*
X04199Y0193*
Y0192*
X04189Y01911*
X04139Y0197D02*
Y0201D01*
X04149*
X04189Y0197*
X04199*
X05665Y02393D02*
X05655Y02403D01*
X05635*
X05626Y02393*
Y02383*
X05635Y02373*
X05655*
X05665Y02363*
Y02353*
X05655Y02344*
X05635*
X05626Y02353*
X05685Y02403D02*
Y02344D01*
X05705Y02363*
X05725Y02344*
Y02403*
X07288D02*
X07268D01*
X07278*
Y02353*
X07268Y02344*
X07258*
X07249Y02353*
X07338Y02344D02*
Y02403D01*
X07308Y02373*
X07348*
X04432Y0157D02*
X04452D01*
X04442*
Y0162*
X04452Y0163*
X04462*
X04472Y0162*
X04412Y0163D02*
X04392D01*
X04402*
Y0157*
X04412Y0158*
X03766Y0285D02*
X0759D01*
X07591Y02849*
Y01111D02*
Y02849D01*
X07575Y01095D02*
X07591Y01111D01*
X03771Y01095D02*
X07575D01*
X03766Y011D02*
X03771Y01095D01*
X03766Y011D02*
Y0285D01*
X07541Y01106D02*
X07547Y011D01*
G54D13*
X05376Y0259D03*
X04971D03*
X04515D03*
X04535Y01383D03*
X05989Y0259D03*
G54D14*
X05179Y0258D03*
X04774D03*
X04318D03*
X04339Y01393D03*
X06186Y0258D03*
X0659Y02579D03*
X06995Y0258D03*
X074Y02581D03*
X05781Y0258D03*
G54D15*
X03962Y01661D03*
X03963Y02067D03*
G54D16*
X03952Y01464D03*
X03953Y0187D03*
G54D17*
X06393Y02589D03*
X06798Y0259D03*
X07203Y02591D03*
X05584Y0259D03*
M02*