G04*
G04 #@! TF.GenerationSoftware,Altium Limited,Altium Designer,19.0.15 (446)*
G04*
G04 Layer_Color=65535*
%FSLAX44Y44*%
%MOMM*%
G71*
G01*
G75*
%ADD10C,0.2000*%
%ADD11C,0.2540*%
%ADD12C,0.7620*%
%ADD13R,2.0000X1.5000*%
%ADD14R,2.0000X1.0000*%
%ADD15C,0.1524*%
D10*
X1189990Y501650D02*
Y580390D01*
X1217930D01*
Y501650D02*
Y580390D01*
X1189990Y501650D02*
X1217930D01*
X1244600D02*
Y580390D01*
X1272540D01*
Y501650D02*
Y580390D01*
X1244600Y501650D02*
X1272540D01*
X895410Y1066190D02*
X955410D01*
X895410D02*
Y1192190D01*
X955410Y1066190D02*
Y1192190D01*
X895410D02*
X955410D01*
X1024950Y1066190D02*
X1084950D01*
X1024950D02*
Y1192190D01*
X1084950Y1066190D02*
Y1192190D01*
X1024950D02*
X1084950D01*
X798890Y979670D02*
X858890D01*
X798890D02*
Y1105670D01*
X858890Y979670D02*
Y1105670D01*
X798890D02*
X858890D01*
X960180Y1066190D02*
X1020180D01*
X960180D02*
Y1192190D01*
X1020180Y1066190D02*
Y1192190D01*
X960180D02*
X1020180D01*
X1285710Y956370D02*
Y1016370D01*
X1185710D02*
X1285710D01*
X1185710Y956370D02*
Y1016370D01*
Y956370D02*
X1285710D01*
X799730Y721830D02*
X859730D01*
X799730Y621830D02*
Y721830D01*
Y621830D02*
X859730D01*
Y721830D01*
X1204860Y940570D02*
X1264860D01*
Y814570D02*
Y940570D01*
X1204860Y814570D02*
Y940570D01*
Y814570D02*
X1264860D01*
X1281900Y739200D02*
Y799200D01*
X1181900D02*
X1281900D01*
X1181900Y739200D02*
Y799200D01*
Y739200D02*
X1281900D01*
X1204860Y728480D02*
X1264860D01*
Y602480D02*
Y728480D01*
X1204860Y602480D02*
Y728480D01*
Y602480D02*
X1264860D01*
X798890Y730750D02*
X858890D01*
X798890D02*
Y856750D01*
X858890Y730750D02*
Y856750D01*
X798890D02*
X858890D01*
X800160Y488180D02*
X860160D01*
X800160D02*
Y614180D01*
X860160Y488180D02*
Y614180D01*
X800160D02*
X860160D01*
X800160Y866940D02*
X860160D01*
Y966940D01*
X800160D02*
X860160D01*
X800160Y866940D02*
Y966940D01*
D11*
X1171970Y500620D02*
Y1010950D01*
X877810D02*
X907810D01*
X908050Y500380D02*
Y1010980D01*
X877570Y500320D02*
Y1010920D01*
X877630Y500380D02*
X908050D01*
X1141790D02*
X1172210D01*
X1141730Y500320D02*
Y1010920D01*
X1141970Y1010950D02*
X1171970D01*
X790340Y1190700D02*
X890340D01*
X790340Y1115700D02*
X890340D01*
Y1190700D01*
X790340Y1115700D02*
Y1190700D01*
X1296260Y1044560D02*
Y1203710D01*
X1104900Y1115060D02*
X1139190D01*
X1102360D02*
X1104900D01*
X1102360Y1079500D02*
Y1115060D01*
X1134760Y1121560D02*
X1135510D01*
X1141260Y1115810D01*
Y1114560D02*
Y1115810D01*
X1135010Y1108310D02*
X1141260Y1114560D01*
X1107760Y1083310D02*
X1108510D01*
X1102010Y1077560D02*
X1107760Y1083310D01*
X1102010Y1077560D02*
Y1077810D01*
X1097510Y1082310D02*
X1102010Y1077810D01*
X1090860Y1203960D02*
X1296010D01*
X1090860Y1044660D02*
Y1203960D01*
X1090760Y1044560D02*
X1090860Y1044660D01*
X1090760Y1044560D02*
X1296260D01*
X1050290Y965200D02*
Y977900D01*
X1024255Y965200D02*
Y977900D01*
X999490Y966470D02*
X1000760Y965200D01*
X999490Y966470D02*
Y977900D01*
X974090Y965200D02*
Y977900D01*
X1074420D01*
Y965200D02*
Y977900D01*
X974090Y965200D02*
X1074420D01*
X990600Y552450D02*
X991870Y553720D01*
X979170Y552450D02*
X990600D01*
X979170Y539750D02*
Y552450D01*
Y539750D02*
X991870D01*
X979170Y514350D02*
X990600D01*
X979170Y501650D02*
Y514350D01*
Y501650D02*
X991870D01*
X1055370Y552450D02*
X1068070D01*
Y539750D02*
Y552450D01*
X1055370Y539750D02*
X1068070D01*
X1055370Y514350D02*
X1068070D01*
Y501650D02*
Y514350D01*
X1055370Y501650D02*
X1068070D01*
X1055370Y491490D02*
Y565150D01*
X991870D02*
X1055370D01*
X991870Y491490D02*
Y565150D01*
X1137920Y491490D02*
Y1026160D01*
X911860D02*
X1137920D01*
X911860Y491490D02*
Y1026160D01*
Y491490D02*
X1137920D01*
X1233166Y570233D02*
X1235705Y572772D01*
Y577851D01*
X1233166Y580390D01*
X1230627D01*
X1228087Y577851D01*
Y572772D01*
X1225548Y570233D01*
X1223009D01*
X1220470Y572772D01*
Y577851D01*
X1223009Y580390D01*
X1235705Y554998D02*
Y565155D01*
X1220470D01*
Y554998D01*
X1228087Y565155D02*
Y560077D01*
X1220470Y549920D02*
X1235705D01*
Y542302D01*
X1233166Y539763D01*
X1228087D01*
X1225548Y542302D01*
Y549920D01*
Y544841D02*
X1220470Y539763D01*
X1235705Y534685D02*
X1225548D01*
X1220470Y529606D01*
X1225548Y524528D01*
X1235705D01*
Y511832D02*
Y516911D01*
X1233166Y519450D01*
X1223009D01*
X1220470Y516911D01*
Y511832D01*
X1223009Y509293D01*
X1233166D01*
X1235705Y511832D01*
X1220470Y494058D02*
Y504215D01*
X1230627Y494058D01*
X1233166D01*
X1235705Y496597D01*
Y501675D01*
X1233166Y504215D01*
X1290316Y570233D02*
X1292855Y572772D01*
Y577851D01*
X1290316Y580390D01*
X1287777D01*
X1285237Y577851D01*
Y572772D01*
X1282698Y570233D01*
X1280159D01*
X1277620Y572772D01*
Y577851D01*
X1280159Y580390D01*
X1292855Y554998D02*
Y565155D01*
X1277620D01*
Y554998D01*
X1285237Y565155D02*
Y560077D01*
X1277620Y549920D02*
X1292855D01*
Y542302D01*
X1290316Y539763D01*
X1285237D01*
X1282698Y542302D01*
Y549920D01*
Y544841D02*
X1277620Y539763D01*
X1292855Y534685D02*
X1282698D01*
X1277620Y529606D01*
X1282698Y524528D01*
X1292855D01*
Y511832D02*
Y516911D01*
X1290316Y519450D01*
X1280159D01*
X1277620Y516911D01*
Y511832D01*
X1280159Y509293D01*
X1290316D01*
X1292855Y511832D01*
X1277620Y504215D02*
Y499136D01*
Y501675D01*
X1292855D01*
X1290316Y504215D01*
X899165Y1106330D02*
Y1111408D01*
Y1108869D01*
X914400D01*
Y1106330D01*
Y1111408D01*
Y1129183D02*
Y1119026D01*
X904243Y1129183D01*
X901704D01*
X899165Y1126643D01*
Y1121565D01*
X901704Y1119026D01*
Y1144418D02*
X899165Y1141879D01*
Y1136800D01*
X901704Y1134261D01*
X911861D01*
X914400Y1136800D01*
Y1141879D01*
X911861Y1144418D01*
X914400Y1149496D02*
Y1154574D01*
Y1152035D01*
X899165D01*
X901704Y1149496D01*
X883120Y1126492D02*
X872963D01*
X878042Y1121414D02*
Y1131571D01*
X815340Y1123952D02*
X805183D01*
X1206500Y1051560D02*
Y1064256D01*
X1210732Y1060024D01*
X1214964Y1064256D01*
Y1051560D01*
X1219196D02*
Y1064256D01*
X1225544D01*
X1227660Y1062140D01*
Y1057908D01*
X1225544Y1055792D01*
X1219196D01*
X1231892Y1064256D02*
Y1053676D01*
X1234008Y1051560D01*
X1238240D01*
X1240356Y1053676D01*
Y1064256D01*
X1149347Y1104900D02*
X1147654D01*
X1144268Y1101514D01*
X1147654Y1098129D01*
X1149347D01*
X1144268Y1101514D02*
X1139190D01*
X1109977Y1070610D02*
X1099820Y1063839D01*
X1109977D02*
X1099820Y1070610D01*
X1026158Y541020D02*
X1019810D01*
X1018540Y539750D01*
Y537211D01*
X1019810Y535942D01*
X1026158D01*
X1024888Y528324D02*
X1026158Y529594D01*
Y532133D01*
X1024888Y533402D01*
X1023618D01*
X1022349Y532133D01*
Y529594D01*
X1021079Y528324D01*
X1019810D01*
X1018540Y529594D01*
Y532133D01*
X1019810Y533402D01*
X1026158Y525785D02*
X1018540D01*
Y521976D01*
X1019810Y520707D01*
X1021079D01*
X1022349Y521976D01*
Y525785D01*
Y521976D01*
X1023618Y520707D01*
X1024888D01*
X1026158Y521976D01*
Y525785D01*
X1263650Y756920D02*
Y741685D01*
X1258572Y746763D01*
X1253493Y741685D01*
Y756920D01*
X1240797Y741685D02*
X1245876D01*
X1248415Y744224D01*
Y754381D01*
X1245876Y756920D01*
X1240797D01*
X1238258Y754381D01*
Y744224D01*
X1240797Y741685D01*
X1233180D02*
X1223023D01*
X1228102D01*
Y756920D01*
X1210327D02*
Y741685D01*
X1217945Y749303D01*
X1207788D01*
X1263650Y976630D02*
Y961395D01*
X1258572Y966473D01*
X1253493Y961395D01*
Y976630D01*
X1240797Y961395D02*
X1245876D01*
X1248415Y963934D01*
Y974091D01*
X1245876Y976630D01*
X1240797D01*
X1238258Y974091D01*
Y963934D01*
X1240797Y961395D01*
X1233180D02*
X1223023D01*
X1228102D01*
Y976630D01*
X1217945Y963934D02*
X1215406Y961395D01*
X1210327D01*
X1207788Y963934D01*
Y966473D01*
X1210327Y969013D01*
X1212866D01*
X1210327D01*
X1207788Y971552D01*
Y974091D01*
X1210327Y976630D01*
X1215406D01*
X1217945Y974091D01*
X838200Y694690D02*
X853435D01*
X848357Y689612D01*
X853435Y684533D01*
X838200D01*
X853435Y671837D02*
Y676916D01*
X850896Y679455D01*
X840739D01*
X838200Y676916D01*
Y671837D01*
X840739Y669298D01*
X850896D01*
X853435Y671837D01*
Y664220D02*
Y654063D01*
Y659141D01*
X838200D01*
Y638828D02*
Y648985D01*
X848357Y638828D01*
X850896D01*
X853435Y641367D01*
Y646446D01*
X850896Y648985D01*
X1028705Y1099980D02*
Y1105058D01*
Y1102519D01*
X1043940D01*
Y1099980D01*
Y1105058D01*
Y1122833D02*
Y1112676D01*
X1033783Y1122833D01*
X1031244D01*
X1028705Y1120293D01*
Y1115215D01*
X1031244Y1112676D01*
Y1138068D02*
X1028705Y1135528D01*
Y1130450D01*
X1031244Y1127911D01*
X1041401D01*
X1043940Y1130450D01*
Y1135528D01*
X1041401Y1138068D01*
X1031244Y1143146D02*
X1028705Y1145685D01*
Y1150764D01*
X1031244Y1153303D01*
X1033783D01*
X1036322Y1150764D01*
Y1148224D01*
Y1150764D01*
X1038862Y1153303D01*
X1041401D01*
X1043940Y1150764D01*
Y1145685D01*
X1041401Y1143146D01*
X962665Y1098710D02*
Y1103788D01*
Y1101249D01*
X977900D01*
Y1098710D01*
Y1103788D01*
Y1121563D02*
Y1111406D01*
X967743Y1121563D01*
X965204D01*
X962665Y1119023D01*
Y1113945D01*
X965204Y1111406D01*
Y1136798D02*
X962665Y1134258D01*
Y1129180D01*
X965204Y1126641D01*
X975361D01*
X977900Y1129180D01*
Y1134258D01*
X975361Y1136798D01*
X977900Y1152033D02*
Y1141876D01*
X967743Y1152033D01*
X965204D01*
X962665Y1149494D01*
Y1144415D01*
X965204Y1141876D01*
X802645Y1022350D02*
Y1027428D01*
Y1024889D01*
X817880D01*
Y1022350D01*
Y1027428D01*
Y1045203D02*
Y1035046D01*
X807723Y1045203D01*
X805184D01*
X802645Y1042663D01*
Y1037585D01*
X805184Y1035046D01*
Y1060438D02*
X802645Y1057898D01*
Y1052820D01*
X805184Y1050281D01*
X815341D01*
X817880Y1052820D01*
Y1057898D01*
X815341Y1060438D01*
X805184Y1065516D02*
X802645Y1068055D01*
Y1073134D01*
X805184Y1075673D01*
X815341D01*
X817880Y1073134D01*
Y1068055D01*
X815341Y1065516D01*
X805184D01*
X1263645Y669293D02*
Y679450D01*
X1248410D01*
Y669293D01*
X1256028Y679450D02*
Y674372D01*
X1248410Y664215D02*
X1263645D01*
X1248410Y654058D01*
X1263645D01*
X1261106Y638823D02*
X1263645Y641362D01*
Y646441D01*
X1261106Y648980D01*
X1250949D01*
X1248410Y646441D01*
Y641362D01*
X1250949Y638823D01*
X1248410Y626127D02*
X1263645D01*
X1256028Y633745D01*
Y623588D01*
X1258565Y904243D02*
Y914400D01*
X1243330D01*
Y904243D01*
X1250947Y914400D02*
Y909322D01*
X1243330Y899165D02*
X1258565D01*
X1243330Y889008D01*
X1258565D01*
X1256026Y873773D02*
X1258565Y876312D01*
Y881391D01*
X1256026Y883930D01*
X1245869D01*
X1243330Y881391D01*
Y876312D01*
X1245869Y873773D01*
X1256026Y868695D02*
X1258565Y866156D01*
Y861077D01*
X1256026Y858538D01*
X1253487D01*
X1250947Y861077D01*
Y863616D01*
Y861077D01*
X1248408Y858538D01*
X1245869D01*
X1243330Y861077D01*
Y866156D01*
X1245869Y868695D01*
X797565Y770887D02*
Y760730D01*
X812800D01*
Y770887D01*
X805182Y760730D02*
Y765808D01*
X812800Y775965D02*
X797565D01*
X812800Y786122D01*
X797565D01*
X800104Y801357D02*
X797565Y798818D01*
Y793739D01*
X800104Y791200D01*
X810261D01*
X812800Y793739D01*
Y798818D01*
X810261Y801357D01*
X812800Y806435D02*
Y811514D01*
Y808974D01*
X797565D01*
X800104Y806435D01*
X846285Y1173483D02*
Y1178562D01*
Y1176022D01*
X833589D01*
X831050Y1178562D01*
Y1181101D01*
X833589Y1183640D01*
X831050Y1168405D02*
Y1163327D01*
Y1165866D01*
X846285D01*
X843746Y1168405D01*
X817875Y566423D02*
Y576580D01*
X802640D01*
Y566423D01*
X810257Y576580D02*
Y571502D01*
X802640Y561345D02*
X817875D01*
X802640Y551188D01*
X817875D01*
X815336Y535953D02*
X817875Y538492D01*
Y543571D01*
X815336Y546110D01*
X805179D01*
X802640Y543571D01*
Y538492D01*
X805179Y535953D01*
X802640Y520718D02*
Y530875D01*
X812797Y520718D01*
X815336D01*
X817875Y523257D01*
Y528336D01*
X815336Y530875D01*
X816610Y885190D02*
X801375D01*
X806453Y890268D01*
X801375Y895347D01*
X816610D01*
X801375Y908043D02*
Y902964D01*
X803914Y900425D01*
X814071D01*
X816610Y902964D01*
Y908043D01*
X814071Y910582D01*
X803914D01*
X801375Y908043D01*
Y915660D02*
Y925817D01*
Y920739D01*
X816610D01*
Y930895D02*
Y935974D01*
Y933434D01*
X801375D01*
X803914Y930895D01*
X789620Y450850D02*
X1303020D01*
Y1200150D01*
X788350Y467360D02*
Y1216660D01*
X1303020D01*
Y410210D02*
X1318260Y415290D01*
X1303020Y410210D02*
X1318260Y405130D01*
X774380D02*
X789620Y410210D01*
X774380Y415290D02*
X789620Y410210D01*
X1303020D02*
X1328420D01*
X764220D02*
X789620D01*
Y407670D02*
Y450850D01*
X1303020Y407670D02*
Y448310D01*
X1381760Y450850D02*
X1386840Y435610D01*
X1376680D02*
X1381760Y450850D01*
X1376680Y1231900D02*
X1381760Y1216660D01*
X1386840Y1231900D01*
X1381760Y425450D02*
Y450850D01*
Y1216660D02*
Y1242060D01*
X1306830Y1216660D02*
X1384300D01*
X1303020Y450850D02*
X1384300D01*
D12*
X986790Y958850D02*
Y1042670D01*
X1010920Y958850D02*
Y1041400D01*
X1062990Y958850D02*
Y1041400D01*
X1037590Y958850D02*
Y1041400D01*
D13*
X865340Y1183200D02*
D03*
D14*
X815340Y1185700D02*
D03*
D15*
X1018134Y413764D02*
X1007977D01*
Y406147D01*
X1013055Y408686D01*
X1015595D01*
X1018134Y406147D01*
Y401068D01*
X1015595Y398529D01*
X1010516D01*
X1007977Y401068D01*
X1023212Y398529D02*
X1028290D01*
X1025751D01*
Y413764D01*
X1023212Y411225D01*
X1038447Y395990D02*
X1040986Y398529D01*
Y401068D01*
X1038447D01*
Y398529D01*
X1040986D01*
X1038447Y395990D01*
X1035908Y393451D01*
X1051143Y411225D02*
X1053682Y413764D01*
X1058761D01*
X1061300Y411225D01*
Y408686D01*
X1058761Y406147D01*
X1056221D01*
X1058761D01*
X1061300Y403608D01*
Y401068D01*
X1058761Y398529D01*
X1053682D01*
X1051143Y401068D01*
X1073996Y398529D02*
Y413764D01*
X1066378Y406147D01*
X1076535D01*
X1391925Y793750D02*
Y803907D01*
X1394464D01*
X1404621Y793750D01*
X1407160D01*
X1391925Y819142D02*
X1394464Y814063D01*
X1399543Y808985D01*
X1404621D01*
X1407160Y811524D01*
Y816603D01*
X1404621Y819142D01*
X1402082D01*
X1399543Y816603D01*
Y808985D01*
X1409699Y826759D02*
X1407160Y829298D01*
X1404621D01*
Y826759D01*
X1407160D01*
Y829298D01*
X1409699Y826759D01*
X1412238Y824220D01*
X1391925Y849612D02*
Y839455D01*
X1399543D01*
X1397003Y844534D01*
Y847073D01*
X1399543Y849612D01*
X1404621D01*
X1407160Y847073D01*
Y841994D01*
X1404621Y839455D01*
X1394464Y854690D02*
X1391925Y857230D01*
Y862308D01*
X1394464Y864847D01*
X1397003D01*
X1399543Y862308D01*
X1402082Y864847D01*
X1404621D01*
X1407160Y862308D01*
Y857230D01*
X1404621Y854690D01*
X1402082D01*
X1399543Y857230D01*
X1397003Y854690D01*
X1394464D01*
X1399543Y857230D02*
Y862308D01*
M02*
