G04*
G04 #@! TF.GenerationSoftware,Altium Limited,Altium Designer,19.0.15 (446)*
G04*
G04 Layer_Physical_Order=2*
G04 Layer_Color=16711680*
%FSLAX44Y44*%
%MOMM*%
G71*
G01*
G75*
%ADD11C,0.2540*%
%ADD15C,0.1524*%
%ADD16C,0.5000*%
%ADD17C,0.7000*%
%ADD18R,1.8000X1.8000*%
%ADD19C,1.8000*%
%ADD20C,3.0480*%
%ADD21C,1.7780*%
%ADD22R,1.8000X1.8000*%
%ADD23R,1.5000X1.5000*%
D11*
X789620Y450850D02*
X1303020D01*
Y1200150D01*
X788350Y467360D02*
Y1216660D01*
X1303020D01*
Y410210D02*
X1318260Y415290D01*
X1303020Y410210D02*
X1318260Y405130D01*
X774380D02*
X789620Y410210D01*
X774380Y415290D02*
X789620Y410210D01*
X1303020D02*
X1328420D01*
X764220D02*
X789620D01*
Y407670D02*
Y450850D01*
X1303020Y407670D02*
Y448310D01*
X1381760Y450850D02*
X1386840Y435610D01*
X1376680D02*
X1381760Y450850D01*
X1376680Y1231900D02*
X1381760Y1216660D01*
X1386840Y1231900D01*
X1381760Y425450D02*
Y450850D01*
Y1216660D02*
Y1242060D01*
X1306830Y1216660D02*
X1384300D01*
X1303020Y450850D02*
X1384300D01*
D15*
X1018134Y413764D02*
X1007977D01*
Y406147D01*
X1013055Y408686D01*
X1015595D01*
X1018134Y406147D01*
Y401068D01*
X1015595Y398529D01*
X1010516D01*
X1007977Y401068D01*
X1023212Y398529D02*
X1028290D01*
X1025751D01*
Y413764D01*
X1023212Y411225D01*
X1038447Y395990D02*
X1040986Y398529D01*
Y401068D01*
X1038447D01*
Y398529D01*
X1040986D01*
X1038447Y395990D01*
X1035908Y393451D01*
X1051143Y411225D02*
X1053682Y413764D01*
X1058761D01*
X1061300Y411225D01*
Y408686D01*
X1058761Y406147D01*
X1056221D01*
X1058761D01*
X1061300Y403608D01*
Y401068D01*
X1058761Y398529D01*
X1053682D01*
X1051143Y401068D01*
X1073996Y398529D02*
Y413764D01*
X1066378Y406147D01*
X1076535D01*
X1391925Y793750D02*
Y803907D01*
X1394464D01*
X1404621Y793750D01*
X1407160D01*
X1391925Y819142D02*
X1394464Y814063D01*
X1399543Y808985D01*
X1404621D01*
X1407160Y811524D01*
Y816603D01*
X1404621Y819142D01*
X1402082D01*
X1399543Y816603D01*
Y808985D01*
X1409699Y826759D02*
X1407160Y829298D01*
X1404621D01*
Y826759D01*
X1407160D01*
Y829298D01*
X1409699Y826759D01*
X1412238Y824220D01*
X1391925Y849612D02*
Y839455D01*
X1399543D01*
X1397003Y844534D01*
Y847073D01*
X1399543Y849612D01*
X1404621D01*
X1407160Y847073D01*
Y841994D01*
X1404621Y839455D01*
X1394464Y854690D02*
X1391925Y857230D01*
Y862308D01*
X1394464Y864847D01*
X1397003D01*
X1399543Y862308D01*
X1402082Y864847D01*
X1404621D01*
X1407160Y862308D01*
Y857230D01*
X1404621Y854690D01*
X1402082D01*
X1399543Y857230D01*
X1397003Y854690D01*
X1394464D01*
X1399543Y857230D02*
Y862308D01*
D16*
X1229360Y915670D02*
X1278501D01*
X1203960Y566420D02*
X1258570D01*
X829150Y1116490D02*
X930910D01*
X815340Y1130300D02*
X829150Y1116490D01*
X815340Y1130300D02*
Y1155700D01*
X834390Y1004570D02*
X850900D01*
X863600Y1017270D01*
Y1065690D01*
X889000Y1091090D01*
X930910D01*
X1229360Y703580D02*
X1246124D01*
X1279144Y736600D01*
Y889000D01*
X1252474Y915670D02*
X1279144Y889000D01*
X1229360Y915670D02*
X1252474D01*
X1219200Y678180D02*
X1229360D01*
X1212342Y671322D02*
X1219200Y678180D01*
X1212342Y659892D02*
Y671322D01*
X1168400Y615950D02*
X1212342Y659892D01*
X1156970Y615950D02*
X1168400D01*
X1156970Y641350D02*
X1170686D01*
X1189736Y660400D01*
Y715772D01*
X1233424Y759460D01*
X1271524D01*
Y838200D01*
X1244854Y864870D02*
X1271524Y838200D01*
X1229360Y864870D02*
X1244854D01*
X1206500Y759460D02*
Y774700D01*
X1189990Y742950D02*
X1206500Y759460D01*
X1156970Y742950D02*
X1189990D01*
X1226820Y774700D02*
X1231900D01*
X1211580Y789940D02*
X1226820Y774700D01*
X1192530Y789940D02*
X1211580D01*
X1170940Y768350D02*
X1192530Y789940D01*
X1156970Y768350D02*
X1170940D01*
X882142Y565150D02*
X892810D01*
X875792Y558800D02*
X882142Y565150D01*
X875792Y533400D02*
Y558800D01*
X855472Y513080D02*
X875792Y533400D01*
X835660Y513080D02*
X855472D01*
X947420Y869950D02*
X990600D01*
X1057402Y803148D01*
Y532638D02*
Y803148D01*
Y532638D02*
X1092200Y497840D01*
X1203960D01*
Y515620D01*
X947420Y844550D02*
X968756D01*
X1014222Y799084D01*
Y508000D02*
Y799084D01*
Y508000D02*
X1040638Y481584D01*
X1244854D01*
X1258570Y495300D01*
Y515620D01*
X835660Y563880D02*
X849884D01*
Y596900D01*
X843280Y603504D02*
X849884Y596900D01*
X821446Y603504D02*
X843280D01*
X802650Y622300D02*
X821446Y603504D01*
X802650Y622300D02*
Y724408D01*
X838200D01*
X863600Y749808D01*
Y806450D01*
X876300Y819150D01*
X892810D01*
X877570Y793750D02*
X892810D01*
X871220Y787400D02*
X877570Y793750D01*
X871220Y736600D02*
Y787400D01*
X851488Y716868D02*
X871220Y736600D01*
X810190Y716868D02*
X851488D01*
X810190Y635000D02*
Y716868D01*
Y635000D02*
X818064Y627126D01*
X839978D01*
X857504Y609600D01*
Y545084D02*
Y609600D01*
X850900Y538480D02*
X857504Y545084D01*
X835660Y538480D02*
X850900D01*
X883391Y717550D02*
X892810D01*
X864202Y697230D02*
X883391Y717550D01*
X824230Y697230D02*
X864202D01*
X834390Y806450D02*
X848520D01*
Y845852D01*
X851916Y849248D01*
Y914400D01*
X883666Y946150D01*
X892810D01*
X875792Y920750D02*
X892810D01*
X868760Y913718D02*
X875792Y920750D01*
X868760Y838200D02*
Y913718D01*
X856060Y825500D02*
X868760Y838200D01*
X856060Y787400D02*
Y825500D01*
X849710Y781050D02*
X856060Y787400D01*
X834390Y781050D02*
X849710D01*
X1203960Y541020D02*
X1258570D01*
X793750Y830580D02*
Y1029970D01*
Y592209D02*
Y830580D01*
X833120D01*
X834390Y831850D01*
X793750Y1029970D02*
Y1134110D01*
Y1029970D02*
X834390D01*
X793750Y592209D02*
X796679Y589280D01*
X835660D01*
X793750Y1134110D02*
X815340Y1155700D01*
X892810Y641350D02*
X947420D01*
X1289050Y926219D02*
Y1016080D01*
X1278501Y915670D02*
X1289050Y926219D01*
X1271270Y1033860D02*
X1289050Y1016080D01*
X930910Y1141890D02*
X995680D01*
X1060450D01*
X930910Y1116490D02*
X995680D01*
X1060450D01*
X995680Y1091090D02*
X1060450D01*
X930910D02*
X995680D01*
X1201420Y1016000D02*
X1273810D01*
X1156970Y971550D02*
X1201420Y1016000D01*
X1273880Y929710D02*
X1276819Y932649D01*
Y1012991D01*
X1273810Y1016000D02*
X1276819Y1012991D01*
X1210310Y858520D02*
Y926781D01*
X1213239Y929710D01*
X1273880D01*
X1210310Y858520D02*
X1229360Y839470D01*
X1210310Y967740D02*
Y991870D01*
X1183640Y941070D02*
X1210310Y967740D01*
X1158240Y820420D02*
X1180711D01*
X1183640Y823349D01*
Y941070D01*
X1156970Y819150D02*
X1158240Y820420D01*
X1271270Y1091090D02*
X1278501D01*
X1187450D02*
X1271270D01*
Y1033860D02*
Y1091090D01*
X1060450D02*
X1187450D01*
Y1027430D02*
Y1091090D01*
X1156970Y996950D02*
X1187450Y1027430D01*
X1281430Y1094019D02*
Y1192530D01*
X1061880Y1115060D02*
X1250950D01*
X1256030Y1120140D02*
Y1192530D01*
X1278501Y1091090D02*
X1281430Y1094019D01*
X1250950Y1115060D02*
X1256030Y1120140D01*
X1060450Y1141890D02*
X1225321D01*
X1230630Y1147199D02*
Y1192530D01*
X1060450Y1167290D02*
X1201191D01*
X1205230Y1171329D02*
Y1192530D01*
X995680Y1167290D02*
X1060450D01*
X930910D02*
X995680D01*
X1225321Y1141890D02*
X1230630Y1147199D01*
X1201191Y1167290D02*
X1205230Y1171329D01*
X824572Y499040D02*
X888611D01*
X891540Y501969D02*
Y513080D01*
X888611Y499040D02*
X891540Y501969D01*
X821620Y501992D02*
Y575240D01*
X835660Y589280D01*
X821620Y501992D02*
X824572Y499040D01*
X1099820Y514350D02*
X1156970D01*
X1099820Y539750D02*
X1156970D01*
X1099820Y565150D02*
X1156970D01*
X1099820Y590550D02*
X1156970D01*
X1099820Y615950D02*
X1156970D01*
X1099820Y641350D02*
X1156970D01*
X1099820Y666750D02*
X1156970D01*
X1099820Y692150D02*
X1156970D01*
X1099820Y717550D02*
X1156970D01*
X1099820Y742950D02*
X1156970D01*
X1099820Y768350D02*
X1156970D01*
X1099820Y793750D02*
X1156970D01*
X1099820Y819150D02*
X1156970D01*
X1099820Y844550D02*
X1156970D01*
X1099820Y869950D02*
X1156970D01*
X1099820Y895350D02*
X1156970D01*
X1099820Y920750D02*
X1156970D01*
X1099820Y946150D02*
X1156970D01*
X1099820Y971550D02*
X1156970D01*
X1099820Y996950D02*
X1156970D01*
X1060450Y1116490D02*
X1061880Y1115060D01*
X891540Y513080D02*
X892810Y514350D01*
X947420D01*
X892810Y539750D02*
X947420D01*
X892810Y565150D02*
X947420D01*
X892810Y590550D02*
X947420D01*
X892810Y615950D02*
X947420D01*
X892810Y666750D02*
X947420D01*
X892810Y692150D02*
X947420D01*
X892810Y717550D02*
X947420D01*
X892810Y742950D02*
X947420D01*
X892810Y768350D02*
X947420D01*
X892810Y793750D02*
X947420D01*
X892810Y819150D02*
X947420D01*
X892810Y844550D02*
X947420D01*
X892810Y869950D02*
X947420D01*
X892810Y895350D02*
X947420D01*
X892810Y920750D02*
X947420D01*
X892810Y946150D02*
X947420D01*
X892810Y971550D02*
X947420D01*
X892810Y996950D02*
X947420D01*
D17*
X1291201Y1211580D02*
X1297940Y1204841D01*
X921220Y1211580D02*
X1291201D01*
X865340Y1155700D02*
X921220Y1211580D01*
X1297940Y580390D02*
Y1204841D01*
X1258570Y541020D02*
X1297940Y580390D01*
D18*
X1203960Y515620D02*
D03*
X1258570D02*
D03*
X930910Y1091090D02*
D03*
X1060450D02*
D03*
X834390Y1004570D02*
D03*
X995680Y1091090D02*
D03*
X824230Y697230D02*
D03*
X1229360Y915670D02*
D03*
Y703580D02*
D03*
X834390Y755650D02*
D03*
X835660Y513080D02*
D03*
Y891540D02*
D03*
D19*
X1203960Y566420D02*
D03*
Y541020D02*
D03*
X1258570Y566420D02*
D03*
Y541020D02*
D03*
X930910Y1167290D02*
D03*
Y1141890D02*
D03*
Y1116490D02*
D03*
X1060450Y1167290D02*
D03*
Y1141890D02*
D03*
Y1116490D02*
D03*
X834390Y1080770D02*
D03*
Y1055370D02*
D03*
Y1029970D02*
D03*
X995680Y1167290D02*
D03*
Y1141890D02*
D03*
Y1116490D02*
D03*
X1235710Y991870D02*
D03*
X1210310D02*
D03*
X824230Y671830D02*
D03*
Y646430D02*
D03*
X1229360Y839470D02*
D03*
Y864870D02*
D03*
Y890270D02*
D03*
X1231900Y774700D02*
D03*
X1206500D02*
D03*
X1229360Y627380D02*
D03*
Y652780D02*
D03*
Y678180D02*
D03*
X834390Y831850D02*
D03*
Y806450D02*
D03*
Y781050D02*
D03*
X835660Y589280D02*
D03*
Y563880D02*
D03*
Y538480D02*
D03*
Y916940D02*
D03*
Y942340D02*
D03*
X1156970Y971550D02*
D03*
Y946150D02*
D03*
Y920750D02*
D03*
Y895350D02*
D03*
Y869950D02*
D03*
Y844550D02*
D03*
Y819150D02*
D03*
Y793750D02*
D03*
Y768350D02*
D03*
Y742950D02*
D03*
Y717550D02*
D03*
Y692150D02*
D03*
Y666750D02*
D03*
Y641350D02*
D03*
Y615950D02*
D03*
Y590550D02*
D03*
Y565150D02*
D03*
Y539750D02*
D03*
Y514350D02*
D03*
X947420Y996950D02*
D03*
Y971550D02*
D03*
Y946150D02*
D03*
Y920750D02*
D03*
Y895350D02*
D03*
Y869950D02*
D03*
Y844550D02*
D03*
Y819150D02*
D03*
Y793750D02*
D03*
Y768350D02*
D03*
Y742950D02*
D03*
Y717550D02*
D03*
Y692150D02*
D03*
Y666750D02*
D03*
Y641350D02*
D03*
Y615950D02*
D03*
Y590550D02*
D03*
Y565150D02*
D03*
Y539750D02*
D03*
Y514350D02*
D03*
X1099820Y996950D02*
D03*
Y971550D02*
D03*
Y946150D02*
D03*
Y920750D02*
D03*
Y895350D02*
D03*
Y869950D02*
D03*
Y844550D02*
D03*
Y819150D02*
D03*
Y793750D02*
D03*
Y768350D02*
D03*
Y742950D02*
D03*
Y717550D02*
D03*
Y692150D02*
D03*
Y666750D02*
D03*
Y641350D02*
D03*
Y615950D02*
D03*
Y590550D02*
D03*
Y565150D02*
D03*
Y539750D02*
D03*
Y514350D02*
D03*
X892810Y539750D02*
D03*
Y565150D02*
D03*
Y590550D02*
D03*
Y615950D02*
D03*
Y641350D02*
D03*
Y666750D02*
D03*
Y692150D02*
D03*
Y717550D02*
D03*
Y742950D02*
D03*
Y768350D02*
D03*
Y793750D02*
D03*
Y819150D02*
D03*
Y844550D02*
D03*
Y869950D02*
D03*
Y895350D02*
D03*
Y920750D02*
D03*
Y946150D02*
D03*
Y971550D02*
D03*
Y996950D02*
D03*
D20*
X865340Y1155700D02*
D03*
X815340D02*
D03*
D21*
X1205230Y1192530D02*
D03*
X1179830D02*
D03*
X1230630D02*
D03*
X1256030D02*
D03*
X1281430D02*
D03*
X1154430D02*
D03*
X1129030D02*
D03*
X1103630D02*
D03*
D22*
X1261110Y991870D02*
D03*
X1257300Y774700D02*
D03*
D23*
X1156970Y996950D02*
D03*
X892810Y514350D02*
D03*
M02*
