G04*
G04 #@! TF.GenerationSoftware,Altium Limited,Altium Designer,19.0.15 (446)*
G04*
G04 Layer_Physical_Order=1*
G04 Layer_Color=255*
%FSLAX44Y44*%
%MOMM*%
G71*
G01*
G75*
%ADD11C,0.2540*%
%ADD15C,0.1524*%
%ADD16C,0.5000*%
%ADD17R,1.8000X1.8000*%
%ADD18C,1.8000*%
%ADD19C,3.0480*%
%ADD20C,1.7780*%
%ADD21R,1.8000X1.8000*%
%ADD22R,1.5000X1.5000*%
D11*
X789620Y450850D02*
X1303020D01*
Y1200150D01*
X788350Y467360D02*
Y1216660D01*
X1303020D01*
Y410210D02*
X1318260Y415290D01*
X1303020Y410210D02*
X1318260Y405130D01*
X774380D02*
X789620Y410210D01*
X774380Y415290D02*
X789620Y410210D01*
X1303020D02*
X1328420D01*
X764220D02*
X789620D01*
Y407670D02*
Y450850D01*
X1303020Y407670D02*
Y448310D01*
X1381760Y450850D02*
X1386840Y435610D01*
X1376680D02*
X1381760Y450850D01*
X1376680Y1231900D02*
X1381760Y1216660D01*
X1386840Y1231900D01*
X1381760Y425450D02*
Y450850D01*
Y1216660D02*
Y1242060D01*
X1306830Y1216660D02*
X1384300D01*
X1303020Y450850D02*
X1384300D01*
D15*
X1018134Y413764D02*
X1007977D01*
Y406147D01*
X1013055Y408686D01*
X1015595D01*
X1018134Y406147D01*
Y401068D01*
X1015595Y398529D01*
X1010516D01*
X1007977Y401068D01*
X1023212Y398529D02*
X1028290D01*
X1025751D01*
Y413764D01*
X1023212Y411225D01*
X1038447Y395990D02*
X1040986Y398529D01*
Y401068D01*
X1038447D01*
Y398529D01*
X1040986D01*
X1038447Y395990D01*
X1035908Y393451D01*
X1051143Y411225D02*
X1053682Y413764D01*
X1058761D01*
X1061300Y411225D01*
Y408686D01*
X1058761Y406147D01*
X1056221D01*
X1058761D01*
X1061300Y403608D01*
Y401068D01*
X1058761Y398529D01*
X1053682D01*
X1051143Y401068D01*
X1073996Y398529D02*
Y413764D01*
X1066378Y406147D01*
X1076535D01*
X1391925Y793750D02*
Y803907D01*
X1394464D01*
X1404621Y793750D01*
X1407160D01*
X1391925Y819142D02*
X1394464Y814063D01*
X1399543Y808985D01*
X1404621D01*
X1407160Y811524D01*
Y816603D01*
X1404621Y819142D01*
X1402082D01*
X1399543Y816603D01*
Y808985D01*
X1409699Y826759D02*
X1407160Y829298D01*
X1404621D01*
Y826759D01*
X1407160D01*
Y829298D01*
X1409699Y826759D01*
X1412238Y824220D01*
X1391925Y849612D02*
Y839455D01*
X1399543D01*
X1397003Y844534D01*
Y847073D01*
X1399543Y849612D01*
X1404621D01*
X1407160Y847073D01*
Y841994D01*
X1404621Y839455D01*
X1394464Y854690D02*
X1391925Y857230D01*
Y862308D01*
X1394464Y864847D01*
X1397003D01*
X1399543Y862308D01*
X1402082Y864847D01*
X1404621D01*
X1407160Y862308D01*
Y857230D01*
X1404621Y854690D01*
X1402082D01*
X1399543Y857230D01*
X1397003Y854690D01*
X1394464D01*
X1399543Y857230D02*
Y862308D01*
D16*
X871484Y1102350D02*
X907034Y1066800D01*
X817227Y1102350D02*
X871484D01*
X812810Y1097933D02*
X817227Y1102350D01*
X812810Y927100D02*
Y1097933D01*
X886371Y1112520D02*
X914654Y1084237D01*
X800100Y1112520D02*
X886371D01*
X800100Y904240D02*
Y1112520D01*
Y904240D02*
X812800Y891540D01*
X884936Y652526D02*
X892810D01*
X855376Y1094810D02*
X877062Y1073124D01*
X820350Y1094810D02*
X855376D01*
X834390Y1079045D02*
X850900D01*
X867410Y1062535D01*
X867410Y619671D01*
X871131Y615950D01*
X808990Y748284D02*
X816356Y755650D01*
X808990Y529590D02*
Y748284D01*
Y529590D02*
X825500Y513080D01*
X796290Y819404D02*
X822960Y846074D01*
X796290Y514096D02*
Y819404D01*
Y514096D02*
X833882Y476504D01*
X907034Y768350D02*
Y1066800D01*
X892810Y768350D02*
X907034D01*
X877062Y660400D02*
Y1073124D01*
X857240Y516392D02*
Y933450D01*
X848614Y685800D02*
Y838200D01*
X848350Y942340D02*
X857240Y933450D01*
X840740Y846074D02*
X848614Y838200D01*
X834644Y671830D02*
X848614Y685800D01*
X822960Y846074D02*
X840740D01*
X820350Y1055370D02*
Y1094810D01*
Y1055370D02*
X834390D01*
X1022350Y1173480D02*
X1030224Y1181354D01*
X1022350Y685800D02*
Y1173480D01*
X1003300Y666750D02*
X1022350Y685800D01*
X1032510Y1124204D02*
X1050196Y1141890D01*
X1032510Y929640D02*
Y1124204D01*
Y929640D02*
X1066800Y895350D01*
X1229360Y609600D02*
Y627380D01*
X1203960Y584200D02*
X1229360Y609600D01*
X1203960Y566420D02*
Y584200D01*
X1046226Y1116490D02*
X1060450D01*
X1046226Y1016000D02*
Y1116490D01*
Y1016000D02*
X1090676Y971550D01*
X1099820D01*
X1218946Y839470D02*
X1229360D01*
X1192276Y812800D02*
X1218946Y839470D01*
X1192276Y654304D02*
Y812800D01*
Y654304D02*
X1219200Y627380D01*
X1229360D01*
X1207770Y890270D02*
X1229360D01*
X1181100Y863600D02*
X1207770Y890270D01*
X1181100Y679450D02*
Y863600D01*
X1168400Y666750D02*
X1181100Y679450D01*
X1156970Y666750D02*
X1168400D01*
X1235710Y977900D02*
Y991870D01*
X1171702Y913892D02*
X1235710Y977900D01*
X1171702Y793750D02*
Y913892D01*
X1156970Y793750D02*
X1171702D01*
X1066800Y895350D02*
X1099820D01*
X1050196Y1141890D02*
X1060450D01*
Y1167290D02*
X1074674D01*
Y1066800D02*
Y1167290D01*
Y1066800D02*
X1114044Y1027430D01*
Y920750D02*
Y1027430D01*
X1099820Y920750D02*
X1114044D01*
X835660Y942340D02*
X848350D01*
X857240Y516392D02*
X876300Y497332D01*
X1092200D01*
X1099820Y504952D01*
Y514350D01*
X1229360Y652780D02*
X1243584D01*
Y508000D02*
Y652780D01*
X1222756Y487172D02*
X1243584Y508000D01*
X1193800Y487172D02*
X1222756D01*
X1180592Y500380D02*
X1193800Y487172D01*
X1180592Y500380D02*
Y533400D01*
X1174242Y539750D02*
X1180592Y533400D01*
X1156970Y539750D02*
X1174242D01*
X824230Y646430D02*
X838270D01*
X849700Y635000D01*
Y493452D02*
Y635000D01*
Y493452D02*
X857250Y485902D01*
X1104900D01*
X1114044Y495046D01*
Y565150D01*
X1099820D02*
X1114044D01*
X1099820Y590550D02*
X1115314D01*
X1121664Y584200D01*
Y486918D02*
Y584200D01*
X1111250Y476504D02*
X1121664Y486918D01*
X833882Y476504D02*
X1111250D01*
X824230Y671830D02*
X834644D01*
X825500Y513080D02*
X835660D01*
X816356Y755650D02*
X834390D01*
X812810Y927100D02*
X822970Y916940D01*
X835660D01*
X892810Y742950D02*
X908304D01*
X914654Y749300D01*
Y1084237D01*
X812800Y891540D02*
X835660D01*
X1257300Y774700D02*
Y788416D01*
X1270000D01*
X1295400Y813816D01*
Y1200150D01*
X1289050Y1206500D02*
X1295400Y1200150D01*
X1022420Y1206500D02*
X1289050D01*
X1009720Y1193800D02*
X1022420Y1206500D01*
X1009720Y736600D02*
Y1193800D01*
X965270Y692150D02*
X1009720Y736600D01*
X947420Y692150D02*
X965270D01*
X947420Y666750D02*
X1003300D01*
X1030224Y1181354D02*
X1081532D01*
X1261110Y1001776D01*
Y991870D02*
Y1001776D01*
X892810Y641350D02*
Y652526D01*
X877062Y660400D02*
X884936Y652526D01*
X871131Y615950D02*
X892810D01*
X834390Y1079045D02*
Y1080770D01*
D17*
X1203960Y515620D02*
D03*
X1258570D02*
D03*
X930910Y1091090D02*
D03*
X1060450D02*
D03*
X834390Y1004570D02*
D03*
X995680Y1091090D02*
D03*
X824230Y697230D02*
D03*
X1229360Y915670D02*
D03*
Y703580D02*
D03*
X834390Y755650D02*
D03*
X835660Y513080D02*
D03*
Y891540D02*
D03*
D18*
X1203960Y566420D02*
D03*
Y541020D02*
D03*
X1258570Y566420D02*
D03*
Y541020D02*
D03*
X930910Y1167290D02*
D03*
Y1141890D02*
D03*
Y1116490D02*
D03*
X1060450Y1167290D02*
D03*
Y1141890D02*
D03*
Y1116490D02*
D03*
X834390Y1080770D02*
D03*
Y1055370D02*
D03*
Y1029970D02*
D03*
X995680Y1167290D02*
D03*
Y1141890D02*
D03*
Y1116490D02*
D03*
X1235710Y991870D02*
D03*
X1210310D02*
D03*
X824230Y671830D02*
D03*
Y646430D02*
D03*
X1229360Y839470D02*
D03*
Y864870D02*
D03*
Y890270D02*
D03*
X1231900Y774700D02*
D03*
X1206500D02*
D03*
X1229360Y627380D02*
D03*
Y652780D02*
D03*
Y678180D02*
D03*
X834390Y831850D02*
D03*
Y806450D02*
D03*
Y781050D02*
D03*
X835660Y589280D02*
D03*
Y563880D02*
D03*
Y538480D02*
D03*
Y916940D02*
D03*
Y942340D02*
D03*
X1156970Y971550D02*
D03*
Y946150D02*
D03*
Y920750D02*
D03*
Y895350D02*
D03*
Y869950D02*
D03*
Y844550D02*
D03*
Y819150D02*
D03*
Y793750D02*
D03*
Y768350D02*
D03*
Y742950D02*
D03*
Y717550D02*
D03*
Y692150D02*
D03*
Y666750D02*
D03*
Y641350D02*
D03*
Y615950D02*
D03*
Y590550D02*
D03*
Y565150D02*
D03*
Y539750D02*
D03*
Y514350D02*
D03*
X947420Y996950D02*
D03*
Y971550D02*
D03*
Y946150D02*
D03*
Y920750D02*
D03*
Y895350D02*
D03*
Y869950D02*
D03*
Y844550D02*
D03*
Y819150D02*
D03*
Y793750D02*
D03*
Y768350D02*
D03*
Y742950D02*
D03*
Y717550D02*
D03*
Y692150D02*
D03*
Y666750D02*
D03*
Y641350D02*
D03*
Y615950D02*
D03*
Y590550D02*
D03*
Y565150D02*
D03*
Y539750D02*
D03*
Y514350D02*
D03*
X1099820Y996950D02*
D03*
Y971550D02*
D03*
Y946150D02*
D03*
Y920750D02*
D03*
Y895350D02*
D03*
Y869950D02*
D03*
Y844550D02*
D03*
Y819150D02*
D03*
Y793750D02*
D03*
Y768350D02*
D03*
Y742950D02*
D03*
Y717550D02*
D03*
Y692150D02*
D03*
Y666750D02*
D03*
Y641350D02*
D03*
Y615950D02*
D03*
Y590550D02*
D03*
Y565150D02*
D03*
Y539750D02*
D03*
Y514350D02*
D03*
X892810Y539750D02*
D03*
Y565150D02*
D03*
Y590550D02*
D03*
Y615950D02*
D03*
Y641350D02*
D03*
Y666750D02*
D03*
Y692150D02*
D03*
Y717550D02*
D03*
Y742950D02*
D03*
Y768350D02*
D03*
Y793750D02*
D03*
Y819150D02*
D03*
Y844550D02*
D03*
Y869950D02*
D03*
Y895350D02*
D03*
Y920750D02*
D03*
Y946150D02*
D03*
Y971550D02*
D03*
Y996950D02*
D03*
D19*
X865340Y1155700D02*
D03*
X815340D02*
D03*
D20*
X1205230Y1192530D02*
D03*
X1179830D02*
D03*
X1230630D02*
D03*
X1256030D02*
D03*
X1281430D02*
D03*
X1154430D02*
D03*
X1129030D02*
D03*
X1103630D02*
D03*
D21*
X1261110Y991870D02*
D03*
X1257300Y774700D02*
D03*
D22*
X1156970Y996950D02*
D03*
X892810Y514350D02*
D03*
M02*
