%FSTAX23Y23*%
%MOIN*%
%SFA1B1*%

%IPPOS*%
%ADD12C,0.010000*%
%ADD24C,0.070866*%
%ADD25R,0.070866X0.078740*%
%ADD26O,0.070866X0.078740*%
%ADD27O,0.059055X0.078740*%
%ADD28R,0.070866X0.070866*%
%ADD29O,0.055118X0.078740*%
%ADD30R,0.078740X0.070866*%
%ADD31O,0.078740X0.070866*%
%ADD32R,0.070866X0.070866*%
%ADD33O,0.047244X0.078740*%
%ADD34O,0.047244X0.070866*%
%ADD35C,0.031496*%
%LNbg_pcb-1*%
%LPD*%
G54D12*
X04392Y01317D02*
Y0365D01*
X04386D02*
X06277D01*
X04392Y0127D02*
X06275D01*
X04392D02*
Y01317D01*
X06277Y01268D02*
Y0365D01*
G54D24*
X05009Y01874D03*
Y01974D03*
Y02074D03*
Y02174D03*
Y02274D03*
Y02374D03*
Y02474D03*
Y02574D03*
Y02674D03*
Y02774D03*
Y02874D03*
Y02974D03*
Y03074D03*
Y03174D03*
Y03274D03*
X05609D03*
Y03174D03*
Y03074D03*
Y02974D03*
Y02874D03*
Y02774D03*
Y02674D03*
Y02574D03*
Y02474D03*
Y02374D03*
Y02274D03*
Y02174D03*
Y02074D03*
Y01974D03*
Y01874D03*
X04881Y01645D03*
X04509Y02925D03*
X0574Y0227D03*
Y0197D03*
Y0207D03*
Y0217D03*
Y0237D03*
Y0247D03*
Y0257D03*
Y0267D03*
Y0277D03*
Y0287D03*
Y0297D03*
Y0307D03*
Y0317D03*
Y0327D03*
X0488Y02268D03*
Y01968D03*
Y02068D03*
Y02168D03*
Y02368D03*
Y02468D03*
Y02568D03*
Y02668D03*
Y02768D03*
Y02868D03*
Y02968D03*
Y03068D03*
Y03168D03*
Y03268D03*
Y03368D03*
X04614Y02373D03*
Y02273D03*
Y02173D03*
Y02073D03*
X0513Y01434D03*
Y01534D03*
X05366Y01434D03*
Y01534D03*
X05602Y01434D03*
Y01534D03*
X05012Y01434D03*
Y01534D03*
X05248Y01434D03*
Y01534D03*
X05484Y01434D03*
Y01534D03*
X05945Y01495D03*
Y01795D03*
Y01695D03*
Y01595D03*
Y01395D03*
G54D25*
X06068Y02868D03*
X06034Y0209D03*
X05872Y03299D03*
X04613Y0312D03*
G54D26*
X06068Y02968D03*
X06034Y0219D03*
Y0229D03*
X05872Y03399D03*
X04613Y0332D03*
X0574Y0337D03*
G54D27*
X05879Y03105D03*
Y03205D03*
G54D28*
X04881Y01745D03*
X0574Y0187D03*
X0488Y01868D03*
X04614Y01973D03*
X0513Y01634D03*
X05366D03*
X05602D03*
X05012D03*
X05248D03*
X05484D03*
X05945Y01895D03*
G54D29*
X05995Y03123D03*
Y03423D03*
X05999Y02429D03*
Y02729D03*
X05921Y0243D03*
Y0273D03*
G54D30*
X04609Y02925D03*
G54D31*
X04609Y02807D03*
G54D32*
X04509Y02807D03*
G54D33*
X06105Y02733D03*
Y02633D03*
G54D34*
X06105Y02533D03*
G54D35*
X06051Y01642D02*
Y01947D01*
X06006Y01992D02*
X06051Y01947D01*
X05918Y01992D02*
X06006D01*
X06004Y01595D02*
X06019D01*
X05945D02*
X06004D01*
X06051Y01642*
X06105Y02619D02*
X06142D01*
X06172Y02487D02*
Y0259D01*
X06142Y02619D02*
X06172Y0259D01*
X0613Y02445D02*
X06172Y02487D01*
X06079Y03572D02*
X06232Y03419D01*
Y02438D02*
Y03419D01*
X06161Y02367D02*
X06232Y02438D01*
X06081Y02445D02*
X0613D01*
X06018Y02508D02*
X06081Y02445D01*
X05948Y02508D02*
X06018D01*
X05921Y02481D02*
X05948Y02508D01*
X05921Y0243D02*
Y02481D01*
X06077Y02533D02*
X06105D01*
X05999Y02611D02*
X06077Y02533D01*
X05999Y02611D02*
Y02729D01*
X04688Y01645D02*
X04881D01*
X04772Y03492D02*
X06018D01*
X04613Y03333D02*
X04772Y03492D01*
X04613Y0332D02*
Y03333D01*
X05918Y02732D02*
Y02802D01*
X05857Y02864D02*
X05918Y02802D01*
X05754Y02864D02*
X05857D01*
X05748Y0287D02*
X05754Y02864D01*
X05799Y01325D02*
X06015D01*
X05691Y01434D02*
X05799Y01325D01*
X05602Y01434D02*
X05691D01*
X06069Y01379D02*
Y01545D01*
X06015Y01325D02*
X06069Y01379D01*
X06019Y01595D02*
X06069Y01545D01*
X06053Y02367D02*
X06161D01*
X05999Y02421D02*
X06053Y02367D01*
X04659Y03572D02*
X06079D01*
X04439Y03352D02*
X04659Y03572D01*
X04439Y02735D02*
Y03352D01*
X0473Y0197D02*
X04877D01*
X05879Y03105D02*
X05884D01*
X04877Y0197D02*
X0488Y01968D01*
X04614Y01973D02*
X04622Y01981D01*
X06105Y02619D02*
Y02633D01*
X04509Y01824D02*
Y02666D01*
Y01824D02*
X04688Y01645D01*
X05444Y02674D02*
X05609D01*
X05343Y02573D02*
X05444Y02674D01*
X05343Y01657D02*
Y02573D01*
X0554Y02574D02*
X05609D01*
X0545Y02484D02*
X0554Y02574D01*
X0545Y01668D02*
Y02484D01*
X04509Y02666D02*
Y02807D01*
X04439Y02735D02*
X04509Y02666D01*
X0473Y0197D02*
Y03203D01*
X04613Y0332D02*
X0473Y03203D01*
X05999Y02421D02*
Y02429D01*
X05782Y0196D02*
X05841Y01902D01*
Y01859D02*
Y01902D01*
Y01859D02*
X05885Y01815D01*
X0592*
X05749Y0196D02*
X05782D01*
X06068Y02968D02*
X06069Y02969D01*
Y03442*
X06018Y03492D02*
X06069Y03442D01*
X05738Y03272D02*
X0574Y0327D01*
X05611Y03272D02*
X05738D01*
X04883Y03271D02*
X05006D01*
X0488Y03268D02*
X04883Y03271D01*
X05006D02*
X05009Y03274D01*
X05879Y03105D02*
X0601Y02973D01*
X05805Y02292D02*
Y02418D01*
X05754Y0247D02*
X05805Y02418D01*
X0574Y0247D02*
X05754D01*
X0592Y01815D02*
X0594Y01795D01*
X05945*
X0574Y0197D02*
X05749Y0196D01*
X04881Y01645D02*
X04986Y01539D01*
X0574Y0217D02*
X05918Y01992D01*
X04616Y0197D02*
X0473D01*
X06062Y02973D02*
X06068Y02968D01*
X0601Y02973D02*
X06062D01*
X05585Y02374D02*
X05609D01*
X05534Y02323D02*
X05585Y02374D01*
X05534Y01793D02*
Y02323D01*
X05602Y01634D02*
Y01725D01*
X05534Y01793D02*
X05602Y01725D01*
X05343Y01657D02*
X05366Y01634D01*
X0545Y01668D02*
X05484Y01634D01*
X05322Y02974D02*
X05609D01*
X05248Y029D02*
X05322Y02974D01*
X05248Y01634D02*
Y029D01*
X05279Y03074D02*
X05609D01*
X05176Y02971D02*
X05279Y03074D01*
X05176Y0168D02*
Y02971D01*
X0513Y01634D02*
X05176Y0168D01*
X05167Y03174D02*
X05609D01*
X05092Y03099D02*
X05167Y03174D01*
X05092Y0177D02*
Y03099D01*
X05012Y0169D02*
X05092Y0177D01*
X05012Y01634D02*
Y0169D01*
X04614Y01973D02*
X04616Y0197D01*
X04611Y02375D02*
X04614Y02373D01*
X04611Y02375D02*
Y02804D01*
X04609Y02807D02*
X04611Y02804D01*
X06105Y02733D02*
Y02734D01*
X06068Y02771D02*
X06105Y02734D01*
X06068Y02771D02*
Y02868D01*
X05992Y03125D02*
X05995Y03123D01*
X05958Y03125D02*
X05992D01*
X05879Y03205D02*
X05958Y03125D01*
X0574Y0327D02*
X05748D01*
X05776Y03298*
X05871*
X05872Y03299*
Y03399D02*
X0588D01*
X05904Y03423*
X05995*
X05918Y02732D02*
X05921Y0273D01*
X0574Y0287D02*
X05748D01*
X05822Y01747D02*
X05893D01*
X0574Y01829D02*
X05822Y01747D01*
X0574Y01829D02*
Y0187D01*
X05893Y01747D02*
X05945Y01695D01*
X05939Y018D02*
X05945Y01795D01*
X05602Y01534D02*
X05606Y01538D01*
X05893*
X05936Y01495*
X05945*
X05898Y0229D02*
X06034D01*
X05855Y02332D02*
X05898Y0229D01*
X05855Y02332D02*
Y0273D01*
X05816Y0277D02*
X05855Y0273D01*
X05805Y02292D02*
X05908Y0219D01*
X06034*
X04593Y02909D02*
X04609Y02925D01*
X04593Y02891D02*
Y02909D01*
X04509Y02807D02*
X04593Y02891D01*
X04513Y0302D02*
X04613Y0312D01*
X04513Y02929D02*
Y0302D01*
X04509Y02925D02*
X04513Y02929D01*
X0592Y0209D02*
X06034D01*
X0574Y0227D02*
X0592Y0209D01*
X06028Y02195D02*
X06034Y0219D01*
X0574Y0277D02*
X05816D01*
X06103Y02734D02*
X06105Y02733D01*
X05921Y0273D02*
X05923Y02732D01*
X05872Y03399D02*
X05877Y03394D01*
X0488Y03168D02*
X04883Y03171D01*
X05006*
X05009Y03174*
X0488Y03068D02*
X04883Y03071D01*
X05006*
X05009Y03074*
X0488Y02968D02*
X04883Y02971D01*
X05006*
X05009Y02974*
X0488Y02868D02*
X04883Y02871D01*
X05006*
X05009Y02874*
X0488Y02768D02*
X04883Y02771D01*
X05006*
X05009Y02774*
X0488Y02668D02*
X04883Y02671D01*
X05006*
X05009Y02674*
X0488Y02568D02*
X04883Y02571D01*
X05006*
X05009Y02574*
X0488Y02468D02*
X04883Y02471D01*
X05006*
X05009Y02474*
X0488Y02368D02*
X04883Y02371D01*
X05006*
X05009Y02374*
X0488Y02168D02*
X04883Y02171D01*
X05006*
X05009Y02174*
X0488Y01868D02*
X0488Y01867D01*
X0488Y01868D02*
X04883Y01871D01*
X0488Y01745D02*
Y01867D01*
Y01745D02*
X04881Y01745D01*
X04883Y01871D02*
X05006D01*
X05009Y01874*
X0488Y02068D02*
X04883Y02071D01*
X05006*
X05009Y02074*
X0488Y01968D02*
X04883Y01971D01*
X05006*
X05009Y01974*
X0488Y02268D02*
X04883Y02271D01*
X05006*
X05009Y02274*
X05006Y01539D02*
X05012Y01534D01*
X04986Y01539D02*
X05006D01*
X05366Y01634D02*
X05379Y01647D01*
X05611Y02772D02*
X05738D01*
X05609Y02774D02*
X05611Y02772D01*
X05484Y01434D02*
X05602D01*
X05366D02*
X05484D01*
X05248D02*
X05366D01*
X0513D02*
X05248D01*
X05012D02*
X0513D01*
X05484Y01534D02*
X05602D01*
X05366D02*
X05484D01*
X05248D02*
X05366D01*
X0513D02*
X05248D01*
X05012D02*
X0513D01*
X05738Y01872D02*
X0574Y0187D01*
X05611Y01872D02*
X05738D01*
X05609Y01874D02*
X05611Y01872D01*
X05738Y01972D02*
X0574Y0197D01*
X05611Y01972D02*
X05738D01*
X05609Y01974D02*
X05611Y01972D01*
X05738Y02072D02*
X0574Y0207D01*
X05611Y02072D02*
X05738D01*
X05609Y02074D02*
X05611Y02072D01*
X05738Y02672D02*
X0574Y0267D01*
X05611Y02672D02*
X05738D01*
X05609Y02674D02*
X05611Y02672D01*
X05738Y02772D02*
X0574Y0277D01*
X05738Y02172D02*
X0574Y0217D01*
X05611Y02172D02*
X05738D01*
X05609Y02174D02*
X05611Y02172D01*
X05738Y02272D02*
X0574Y0227D01*
X05611Y02272D02*
X05738D01*
X05609Y02274D02*
X05611Y02272D01*
X05738Y02372D02*
X0574Y0237D01*
X05611Y02372D02*
X05738D01*
X05609Y02374D02*
X05611Y02372D01*
X05738Y02472D02*
X0574Y0247D01*
X05611Y02472D02*
X05738D01*
X05609Y02474D02*
X05611Y02472D01*
X05738Y02572D02*
X0574Y0257D01*
X05611Y02572D02*
X05738D01*
X05609Y02574D02*
X05611Y02572D01*
X05738Y02872D02*
X0574Y0287D01*
X05611Y02872D02*
X05738D01*
X05609Y02874D02*
X05611Y02872D01*
X05738Y02972D02*
X0574Y0297D01*
X05611Y02972D02*
X05738D01*
X05609Y02974D02*
X05611Y02972D01*
X05738Y03072D02*
X0574Y0307D01*
X05611Y03072D02*
X05738D01*
X05609Y03074D02*
X05611Y03072D01*
X05738Y03172D02*
X0574Y0317D01*
X05611Y03172D02*
X05738D01*
X05609Y03174D02*
X05611Y03172D01*
X05609Y03274D02*
X05611Y03272D01*
M02*