%FSTAX23Y23*%
%MOIN*%
%SFA1B1*%

%IPPOS*%
%ADD12C,0.010000*%
%ADD13C,0.078866*%
%ADD14R,0.078866X0.086740*%
%ADD15O,0.078866X0.086740*%
%ADD16O,0.067055X0.086740*%
%ADD17R,0.078866X0.078866*%
%ADD18O,0.063118X0.086740*%
%ADD19R,0.086740X0.078866*%
%ADD20O,0.086740X0.078866*%
%ADD21R,0.078866X0.078866*%
%ADD22O,0.055244X0.086740*%
%ADD23O,0.055244X0.078866*%
%LNbg_pcb-1*%
%LPD*%
G54D12*
X04392Y01317D02*
Y0365D01*
X04386D02*
X06277D01*
X04392Y0127D02*
X06275D01*
X04392D02*
Y01317D01*
X06277Y01268D02*
Y0365D01*
G54D13*
X05009Y01874D03*
Y01974D03*
Y02074D03*
Y02174D03*
Y02274D03*
Y02374D03*
Y02474D03*
Y02574D03*
Y02674D03*
Y02774D03*
Y02874D03*
Y02974D03*
Y03074D03*
Y03174D03*
Y03274D03*
X05609D03*
Y03174D03*
Y03074D03*
Y02974D03*
Y02874D03*
Y02774D03*
Y02674D03*
Y02574D03*
Y02474D03*
Y02374D03*
Y02274D03*
Y02174D03*
Y02074D03*
Y01974D03*
Y01874D03*
X04881Y01645D03*
X04509Y02925D03*
X0574Y0227D03*
Y0197D03*
Y0207D03*
Y0217D03*
Y0237D03*
Y0247D03*
Y0257D03*
Y0267D03*
Y0277D03*
Y0287D03*
Y0297D03*
Y0307D03*
Y0317D03*
Y0327D03*
X0488Y02268D03*
Y01968D03*
Y02068D03*
Y02168D03*
Y02368D03*
Y02468D03*
Y02568D03*
Y02668D03*
Y02768D03*
Y02868D03*
Y02968D03*
Y03068D03*
Y03168D03*
Y03268D03*
Y03368D03*
X04614Y02373D03*
Y02273D03*
Y02173D03*
Y02073D03*
X0513Y01434D03*
Y01534D03*
X05366Y01434D03*
Y01534D03*
X05602Y01434D03*
Y01534D03*
X05012Y01434D03*
Y01534D03*
X05248Y01434D03*
Y01534D03*
X05484Y01434D03*
Y01534D03*
X05945Y01495D03*
Y01795D03*
Y01695D03*
Y01595D03*
Y01395D03*
G54D14*
X06068Y02868D03*
X06034Y0209D03*
X05872Y03299D03*
X04613Y0312D03*
G54D15*
X06068Y02968D03*
X06034Y0219D03*
Y0229D03*
X05872Y03399D03*
X04613Y0332D03*
X0574Y0337D03*
G54D16*
X05879Y03105D03*
Y03205D03*
G54D17*
X04881Y01745D03*
X0574Y0187D03*
X0488Y01868D03*
X04614Y01973D03*
X0513Y01634D03*
X05366D03*
X05602D03*
X05012D03*
X05248D03*
X05484D03*
X05945Y01895D03*
G54D18*
X05995Y03123D03*
Y03423D03*
X05999Y02429D03*
Y02729D03*
X05921Y0243D03*
Y0273D03*
G54D19*
X04609Y02925D03*
G54D20*
X04609Y02807D03*
G54D21*
X04509Y02807D03*
G54D22*
X06105Y02733D03*
Y02633D03*
G54D23*
X06105Y02533D03*
M02*