G04*
G04 #@! TF.GenerationSoftware,Altium Limited,Altium Designer,19.0.15 (446)*
G04*
G04 Layer_Physical_Order=2*
G04 Layer_Color=16711680*
%FSLAX25Y25*%
%MOIN*%
G70*
G01*
G75*
%ADD11C,0.01000*%
%ADD15C,0.07087*%
%ADD16R,0.07087X0.07087*%
%ADD17C,0.05512*%
%ADD18C,0.03937*%
D11*
X362106Y384449D02*
X550886D01*
X362106D02*
Y391929D01*
Y470079D01*
X550886Y384449D02*
Y470079D01*
X362106D02*
X550886D01*
D15*
X507500Y448500D02*
D03*
Y438500D02*
D03*
Y428500D02*
D03*
X482500Y448500D02*
D03*
Y438500D02*
D03*
Y428500D02*
D03*
X457500Y448500D02*
D03*
Y438500D02*
D03*
Y428500D02*
D03*
X432500Y448500D02*
D03*
Y438500D02*
D03*
Y428500D02*
D03*
X407500Y448500D02*
D03*
Y438500D02*
D03*
Y428500D02*
D03*
X532677Y448500D02*
D03*
Y438500D02*
D03*
Y428500D02*
D03*
X382382Y448500D02*
D03*
Y438500D02*
D03*
Y428500D02*
D03*
D16*
X507500Y418500D02*
D03*
X482500D02*
D03*
X457500D02*
D03*
X432500D02*
D03*
X407500D02*
D03*
X532677D02*
D03*
X382382D02*
D03*
D17*
X504882Y404528D02*
D03*
X534882D02*
D03*
X410039D02*
D03*
X380039D02*
D03*
X505039Y396654D02*
D03*
X535039D02*
D03*
X410079Y396555D02*
D03*
X380079D02*
D03*
D18*
X539075Y389370D02*
X542618Y392913D01*
X519587Y389370D02*
X539075D01*
X515650Y393307D02*
X519587Y389370D01*
X542618Y392913D02*
Y400787D01*
X538878Y404528D02*
X542618Y400787D01*
X534882Y404528D02*
X538878D01*
X515650Y393307D02*
Y410350D01*
X407500Y448500D02*
Y453425D01*
X402165Y458760D02*
X407500Y453425D01*
X372287Y458760D02*
X402165D01*
X366732Y453206D02*
X372287Y458760D01*
X366732Y395613D02*
Y453206D01*
Y395613D02*
X373074Y389272D01*
X394783D01*
X410039Y404528D01*
X376476Y396555D02*
X380079D01*
X372539Y400492D02*
X376476Y396555D01*
X372539Y400492D02*
Y423425D01*
X377011Y427897D01*
X381779D01*
X382382Y428500D01*
Y418500D02*
X407500D01*
X507500D02*
X515650Y410350D01*
X528008Y428500D02*
X532677D01*
X507500D02*
X528008D01*
X504882Y404528D02*
X504961Y404449D01*
Y396732D02*
Y404449D01*
Y396732D02*
X505039Y396654D01*
X504990Y396604D02*
X505039Y396654D01*
X410128Y396604D02*
X504990D01*
X410079Y396555D02*
X410128Y396604D01*
X410059Y396575D02*
X410079Y396555D01*
X410059Y396575D02*
Y404508D01*
X410039Y404528D02*
X410059Y404508D01*
X382382Y428500D02*
X407500D01*
X380039Y404528D02*
Y416157D01*
X407500Y418500D02*
X432500D01*
X457500D01*
X482500D01*
X457500Y428500D02*
X482500D01*
X432500D02*
X457500D01*
X407500D02*
X432500D01*
X528445Y396654D02*
X535039D01*
X523032Y402067D02*
X528445Y396654D01*
X523032Y402067D02*
Y423524D01*
X528008Y428500D01*
X380039Y416157D02*
X382382Y418500D01*
X532677Y407158D02*
X534882Y404954D01*
X532677Y407158D02*
Y418500D01*
X534882Y404528D02*
Y404954D01*
X382382Y438500D02*
X407500D01*
X382382Y448500D02*
X407500D01*
X507500Y438500D02*
X532677D01*
X507500Y448500D02*
X532677D01*
X407500Y438500D02*
X432500D01*
X457500D01*
X482500D01*
X507500D01*
X407500Y448500D02*
X432500D01*
X457500D01*
X482500D01*
X507500D01*
M02*
