G04*
G04 #@! TF.GenerationSoftware,Altium Limited,Altium Designer,19.0.15 (446)*
G04*
G04 Layer_Physical_Order=2*
G04 Layer_Color=16711680*
%FSLAX25Y25*%
%MOIN*%
G70*
G01*
G75*
%ADD11C,0.01000*%
%ADD15C,0.07087*%
%ADD16R,0.07087X0.07087*%
%ADD17C,0.05512*%
%ADD18C,0.03937*%
D11*
X362106Y391929D02*
Y470079D01*
X361811Y391634D02*
X362106Y391929D01*
X361811Y391634D02*
X550886D01*
X550886Y391634D01*
Y470079D01*
X362106D02*
X550886D01*
D15*
X507500Y448500D02*
D03*
Y438500D02*
D03*
Y428500D02*
D03*
X482500Y448500D02*
D03*
Y438500D02*
D03*
Y428500D02*
D03*
X457500Y448500D02*
D03*
Y438500D02*
D03*
Y428500D02*
D03*
X432500Y448500D02*
D03*
Y438500D02*
D03*
Y428500D02*
D03*
X407500Y448500D02*
D03*
Y438500D02*
D03*
Y428500D02*
D03*
X532677Y448500D02*
D03*
Y438500D02*
D03*
Y428500D02*
D03*
X382382Y448500D02*
D03*
Y438500D02*
D03*
Y428500D02*
D03*
D16*
X507500Y418500D02*
D03*
X482500D02*
D03*
X457500D02*
D03*
X432500D02*
D03*
X407500D02*
D03*
X532677D02*
D03*
X382382D02*
D03*
D17*
X504882Y404528D02*
D03*
X534882D02*
D03*
X410039Y404528D02*
D03*
X380039D02*
D03*
X505039Y396654D02*
D03*
X535039D02*
D03*
X410079Y396555D02*
D03*
X380079D02*
D03*
D18*
X407500Y418500D02*
X432500D01*
X457500D01*
X482500D01*
X457500Y428500D02*
X482500D01*
X432500D02*
X457500D01*
X407500D02*
X432500D01*
X528445Y396654D02*
X535039D01*
X523032Y402067D02*
X528445Y396654D01*
X523032Y402067D02*
Y423524D01*
X528008Y428500D01*
X532677D01*
X516240Y402264D02*
Y423622D01*
X511362Y428500D02*
X516240Y423622D01*
X507500Y428500D02*
X511362D01*
X510630Y396654D02*
X516240Y402264D01*
X505039Y396654D02*
X510630D01*
X398425Y425000D02*
X401925Y428500D01*
X398425Y399016D02*
Y425000D01*
Y399016D02*
X400886Y396555D01*
X410079D01*
X401925Y428500D02*
X407500D01*
X390453Y399902D02*
Y425000D01*
X387106Y396555D02*
X390453Y399902D01*
X380079Y396555D02*
X387106D01*
X386953Y428500D02*
X390453Y425000D01*
X382382Y428500D02*
X386953D01*
X410039Y404528D02*
Y415961D01*
X407500Y418500D02*
X410039Y415961D01*
X380039Y404528D02*
Y416157D01*
X382382Y418500D01*
X409738Y404829D02*
X410039Y404528D01*
X532677Y407158D02*
X534882Y404954D01*
X532677Y407158D02*
Y418500D01*
X534882Y404528D02*
Y404954D01*
X504882D02*
X507500Y407572D01*
X504882Y404528D02*
Y404954D01*
X507500Y407572D02*
Y418500D01*
X382382Y438500D02*
X407500D01*
X382382Y448500D02*
X407500D01*
X507500Y438500D02*
X532677D01*
X507500Y448500D02*
X532677D01*
X407500Y438500D02*
X432500D01*
X457500D01*
X482500D01*
X507500D01*
X407500Y448500D02*
X432500D01*
X457500D01*
X482500D01*
X507500D01*
M02*
