G04*
G04 #@! TF.GenerationSoftware,Altium Limited,Altium Designer,19.0.15 (446)*
G04*
G04 Layer_Color=16711935*
%FSLAX25Y25*%
%MOIN*%
G70*
G01*
G75*
%ADD11C,0.01000*%
%ADD12C,0.07887*%
%ADD13R,0.07887X0.07887*%
%ADD14C,0.06312*%
D11*
X362106Y384449D02*
X550886D01*
X362106D02*
Y391929D01*
Y470079D01*
X550886Y384449D02*
Y470079D01*
X362106D02*
X550886D01*
D12*
X507500Y448500D02*
D03*
Y438500D02*
D03*
Y428500D02*
D03*
X482500Y448500D02*
D03*
Y438500D02*
D03*
Y428500D02*
D03*
X457500Y448500D02*
D03*
Y438500D02*
D03*
Y428500D02*
D03*
X432500Y448500D02*
D03*
Y438500D02*
D03*
Y428500D02*
D03*
X407500Y448500D02*
D03*
Y438500D02*
D03*
Y428500D02*
D03*
X532677Y448500D02*
D03*
Y438500D02*
D03*
Y428500D02*
D03*
X382382Y448500D02*
D03*
Y438500D02*
D03*
Y428500D02*
D03*
D13*
X507500Y418500D02*
D03*
X482500D02*
D03*
X457500D02*
D03*
X432500D02*
D03*
X407500D02*
D03*
X532677D02*
D03*
X382382D02*
D03*
D14*
X504882Y404528D02*
D03*
X534882D02*
D03*
X410039D02*
D03*
X380039D02*
D03*
X505039Y396654D02*
D03*
X535039D02*
D03*
X410079Y396555D02*
D03*
X380079D02*
D03*
M02*
